<svg width="32" height="32" viewBox="0 0 32 32" fill="none" xmlns="http://www.w3.org/2000/svg">
<path d="M10.3246 6.58154H22.6934L6.69336 18.156M10.3246 6.58154L6.69336 18.156M10.3246 6.58154L13.1614 25.6454M6.69336 18.156L13.1614 25.6454M6.69336 18.156L24.9629 23.4893M13.1614 25.6454L24.9629 23.4893M13.1614 25.6454L23.9416 15.0922M24.9629 23.4893L23.9416 15.0922M24.9629 23.4893L17.9274 14.6383L23.9416 15.0922" stroke="#414141" stroke-width="0.7" stroke-linejoin="round"/>
<ellipse cx="22.5822" cy="6.695" rx="1.24823" ry="1.24823" fill="#414141"/>
<ellipse cx="10.2137" cy="6.58133" rx="1.58865" ry="1.58865" fill="#414141"/>
<ellipse cx="6.80858" cy="18.1557" rx="1.13475" ry="1.13475" fill="#414141"/>
<ellipse cx="13.2775" cy="25.5319" rx="1.24823" ry="1.24823" fill="#414141"/>
<ellipse cx="24.8514" cy="23.489" rx="1.02128" ry="1.02128" fill="#414141"/>
<ellipse cx="23.8301" cy="15.2056" rx="1.13475" ry="1.13475" fill="#414141"/>
<ellipse cx="17.9289" cy="14.7516" rx="1.8156" ry="1.8156" fill="#414141"/>
<ellipse opacity="0.4" cx="3.40351" cy="10.2126" rx="0.680851" ry="0.680851" fill="#414141"/>
<ellipse opacity="0.4" cx="15.432" cy="4.53896" rx="0.226951" ry="0.22695" fill="#414141"/>
<ellipse opacity="0.4" cx="29.5027" cy="18.1561" rx="0.453897" ry="0.453903" fill="#414141"/>
<ellipse opacity="0.4" cx="24.9637" cy="11.3475" rx="0.453897" ry="0.453901" fill="#414141"/>
<ellipse opacity="0.4" cx="5.78574" cy="23.9435" rx="0.340426" ry="0.340425" fill="#414141"/>
<circle opacity="0.4" cx="20.4246" cy="29.2767" r="0.4539" fill="#414141"/>
</svg>
