<svg width="32" height="32" viewBox="0 0 32 32" fill="none" xmlns="http://www.w3.org/2000/svg">
<path d="M10.3263 6.58157H22.6951L6.69507 18.156M10.3263 6.58157L6.69507 18.156M10.3263 6.58157L13.1632 25.6454M6.69507 18.156L13.1632 25.6454M6.69507 18.156L24.9646 23.4894M13.1632 25.6454L24.9646 23.4894M13.1632 25.6454L23.9433 15.0922M24.9646 23.4894L23.9433 15.0922M24.9646 23.4894L17.9291 14.6383L23.9433 15.0922" stroke="#414141" stroke-width="0.7" stroke-linejoin="round"/>
<ellipse cx="22.5816" cy="6.69505" rx="1.24823" ry="1.24823" fill="#414141"/>
<ellipse cx="10.2128" cy="6.58156" rx="1.58865" ry="1.58865" fill="#414141"/>
<ellipse cx="6.80852" cy="18.156" rx="1.13475" ry="1.13475" fill="#414141"/>
<ellipse cx="13.2766" cy="25.5319" rx="1.24823" ry="1.24823" fill="#414141"/>
<ellipse cx="24.8511" cy="23.4894" rx="1.02128" ry="1.02128" fill="#414141"/>
<ellipse cx="23.8298" cy="15.2057" rx="1.13475" ry="1.13475" fill="#414141"/>
<ellipse cx="17.9291" cy="14.7518" rx="1.8156" ry="1.8156" fill="#414141"/>
<ellipse opacity="0.4" cx="3.40427" cy="10.2128" rx="0.680851" ry="0.680851" fill="#414141"/>
<ellipse opacity="0.4" cx="15.4326" cy="4.53899" rx="0.226951" ry="0.22695" fill="#414141"/>
<ellipse opacity="0.4" cx="29.5035" cy="18.156" rx="0.453897" ry="0.453903" fill="#414141"/>
<ellipse opacity="0.4" cx="24.9645" cy="11.3475" rx="0.453897" ry="0.453901" fill="#414141"/>
<ellipse opacity="0.4" cx="5.78726" cy="23.9433" rx="0.340426" ry="0.340425" fill="#414141"/>
<circle opacity="0.4" cx="20.4255" cy="29.2766" r="0.4539" fill="#414141"/>
</svg>
