<svg width="895" height="181" viewBox="0 0 895 181" fill="none" xmlns="http://www.w3.org/2000/svg">
<path d="M894.53 175.53C894.823 175.237 894.823 174.763 894.53 174.47L889.757 169.697C889.464 169.404 888.99 169.404 888.697 169.697C888.404 169.99 888.404 170.464 888.697 170.757L892.939 175L888.697 179.243C888.404 179.536 888.404 180.01 888.697 180.303C888.99 180.596 889.464 180.596 889.757 180.303L894.53 175.53ZM0 175.75H11.9905V174.25H0V175.75ZM883.509 175.75H894V174.25H883.509V175.75ZM877.759 6V170H879.259V6H877.759ZM17.7405 170V6H16.2405V170H17.7405ZM21.9905 1.75H873.509V0.25H21.9905V1.75ZM17.7405 6C17.7405 3.65279 19.6433 1.75 21.9905 1.75V0.25C18.8149 0.25 16.2405 2.82436 16.2405 6H17.7405ZM879.259 6C879.259 2.82436 876.684 0.25 873.509 0.25V1.75C875.856 1.75 877.759 3.65279 877.759 6H879.259ZM883.509 174.25C881.161 174.25 879.259 172.347 879.259 170H877.759C877.759 173.176 880.333 175.75 883.509 175.75V174.25ZM11.9905 175.75C15.1661 175.75 17.7405 173.176 17.7405 170H16.2405C16.2405 172.347 14.3377 174.25 11.9905 174.25V175.75Z" fill="#414141"/>
</svg>
