<svg width="50" height="26" viewBox="0 0 50 26" fill="none" xmlns="http://www.w3.org/2000/svg">
<path d="M49.5316 6.53033C49.8245 6.23744 49.8245 5.76256 49.5316 5.46967L44.7586 0.696699C44.4657 0.403806 43.9908 0.403806 43.6979 0.696699C43.405 0.989593 43.405 1.46447 43.6979 1.75736L47.9406 6L43.6979 10.2426C43.405 10.5355 43.405 11.0104 43.6979 11.3033C43.9908 11.5962 44.4657 11.5962 44.7586 11.3033L49.5316 6.53033ZM10.8728 11.0476L10.1228 11.0548L10.8728 11.0476ZM15.8726 6.75H49.0012V5.25H15.8726V6.75ZM0.677734 25.25H5.9531V23.75H0.677734V25.25ZM11.7028 19.4452L11.6227 11.0405L10.1228 11.0548L10.2029 19.4595L11.7028 19.4452ZM5.9531 25.25C9.15016 25.25 11.7333 22.6421 11.7028 19.4452L10.2029 19.4595C10.2254 21.8224 8.31614 23.75 5.9531 23.75V25.25ZM15.8726 5.25C12.6755 5.25 10.0924 7.85788 10.1228 11.0548L11.6227 11.0405C11.6002 8.67756 13.5095 6.75 15.8726 6.75V5.25Z" fill="#414141"/>
</svg>
