<svg width="1578" height="187" viewBox="0 0 1578 187" fill="none" xmlns="http://www.w3.org/2000/svg">
<path d="M2060.53 137.47C2060.82 137.763 2060.82 138.237 2060.53 138.53L2055.76 143.303C2055.46 143.596 2054.99 143.596 2054.7 143.303C2054.4 143.01 2054.4 142.536 2054.7 142.243L2058.94 138L2054.7 133.757C2054.4 133.464 2054.4 132.99 2054.7 132.697C2054.99 132.404 2055.46 132.404 2055.76 132.697L2060.53 137.47ZM63.9995 186V185.25V186ZM0 185.25H63.9995V186.75H0L0 185.25ZM68.2495 181V-16H69.7495V181H68.2495ZM73.9995 -21.75H1998V-20.25H73.9995V-21.75ZM2003.75 -16V133H2002.25V-16H2003.75ZM2008 137.25H2060V138.75H2008V137.25ZM2003.75 133C2003.75 135.347 2005.65 137.25 2008 137.25V138.75C2004.82 138.75 2002.25 136.176 2002.25 133H2003.75ZM1998 -21.75C2001.18 -21.75 2003.75 -19.1756 2003.75 -16H2002.25C2002.25 -18.3472 2000.35 -20.25 1998 -20.25V-21.75ZM68.2495 -16C68.2495 -19.1756 70.8239 -21.75 73.9995 -21.75V-20.25C71.6523 -20.25 69.7495 -18.3472 69.7495 -16H68.2495ZM63.9995 185.25C66.3467 185.25 68.2495 183.347 68.2495 181H69.7495C69.7495 184.176 67.1751 186.75 63.9995 186.75V185.25Z" fill="#414141"/>
</svg>
