<svg width="552" height="176" viewBox="0 0 552 176" fill="none" xmlns="http://www.w3.org/2000/svg">
<path d="M836.53 154.53C836.823 154.237 836.823 153.763 836.53 153.47L831.757 148.697C831.464 148.404 830.99 148.404 830.697 148.697C830.404 148.99 830.404 149.464 830.697 149.757L834.939 154L830.697 158.243C830.404 158.536 830.404 159.01 830.697 159.303C830.99 159.596 831.464 159.596 831.757 159.303L836.53 154.53ZM0 175.25H6.09885V173.75H0V175.25ZM826.037 154.75H836V153.25H826.037V154.75ZM820.287 6V149H821.787V6H820.287ZM11.8489 169.5V6H10.3489V169.5H11.8489ZM16.0989 1.75H816.037V0.25H16.0989V1.75ZM11.8489 6C11.8489 3.65279 13.7516 1.75 16.0989 1.75V0.25C12.9232 0.25 10.3489 2.82436 10.3489 6H11.8489ZM821.787 6C821.787 2.82436 819.212 0.25 816.037 0.25V1.75C818.384 1.75 820.287 3.65279 820.287 6H821.787ZM826.037 153.25C823.689 153.25 821.787 151.347 821.787 149H820.287C820.287 152.176 822.861 154.75 826.037 154.75V153.25ZM6.09885 175.25C9.27449 175.25 11.8489 172.676 11.8489 169.5H10.3489C10.3489 171.847 8.44606 173.75 6.09885 173.75V175.25Z" fill="#414141"/>
</svg>
