<svg width="50" height="15" viewBox="0 0 50 15" fill="none" xmlns="http://www.w3.org/2000/svg">
<path d="M22.7059 9V8.25V9ZM45.5299 9.53033C45.8227 9.23744 45.8227 8.76256 45.5299 8.46967L40.7569 3.6967C40.464 3.40381 39.9891 3.40381 39.6962 3.6967C39.4033 3.98959 39.4033 4.46447 39.6962 4.75736L43.9389 9L39.6962 13.2426C39.4033 13.5355 39.4033 14.0104 39.6962 14.3033C39.9891 14.5962 40.464 14.5962 40.7569 14.3033L45.5299 9.53033ZM17.9559 5C17.9559 7.62335 20.0825 9.75 22.7059 9.75V8.25C20.911 8.25 19.4559 6.79493 19.4559 5H17.9559ZM14.7059 1.75C16.5008 1.75 17.9559 3.20507 17.9559 5H19.4559C19.4559 2.37665 17.3292 0.25 14.7059 0.25V1.75ZM4 1.75H14.7059V0.25H4V1.75ZM22.7059 9.75L44.9995 9.75V8.25L22.7059 8.25V9.75Z" fill="#414141"/>
</svg>
