<svg width="58" height="13" viewBox="0 0 58 13" fill="none" xmlns="http://www.w3.org/2000/svg">
<path d="M4 1H9.49465H25.7059C27.3627 1 28.7059 2.34315 28.7059 4V4C28.7059 5.65685 30.049 7 31.7059 7H34" stroke="#414141" stroke-width="1.5"/>
<path d="M53.5298 7.53033C53.8227 7.23744 53.8227 6.76256 53.5299 6.46967L48.7569 1.6967C48.464 1.40381 47.9891 1.40381 47.6962 1.6967C47.4033 1.98959 47.4033 2.46447 47.6962 2.75736L51.9389 7L47.6962 11.2426C47.4033 11.5355 47.4033 12.0104 47.6962 12.3033C47.9891 12.5962 48.464 12.5962 48.7569 12.3033L53.5298 7.53033ZM34 7.75L52.9995 7.75L52.9995 6.25L34 6.25L34 7.75Z" fill="#414141"/>
</svg>
