<svg width="163" height="142" viewBox="0 0 163 142" fill="none" xmlns="http://www.w3.org/2000/svg">
<path d="M162.53 5.46967C162.823 5.76256 162.823 6.23743 162.53 6.53032L157.757 11.3033C157.464 11.5962 156.99 11.5962 156.697 11.3033C156.404 11.0104 156.404 10.5355 156.697 10.2426L160.939 6L156.697 1.75735C156.404 1.46446 156.404 0.989594 156.697 0.696701C156.99 0.403809 157.464 0.403809 157.757 0.696701L162.53 5.46967ZM0 140.25H66.7243V141.75H0V140.25ZM70.9743 136V11H72.4743V136H70.9743ZM76.7243 5.25H162V6.75H76.7243V5.25ZM70.9743 11C70.9743 7.82436 73.5487 5.25 76.7243 5.25V6.75C74.3771 6.75 72.4743 8.65279 72.4743 11H70.9743ZM66.7243 140.25C69.0716 140.25 70.9743 138.347 70.9743 136H72.4743C72.4743 139.176 69.9 141.75 66.7243 141.75V140.25Z" fill="#414141"/>
</svg>
