<svg width="1920" height="236" viewBox="0 0 1920 236" fill="none" xmlns="http://www.w3.org/2000/svg">
<path d="M4386.53 6.53033C4386.82 6.23744 4386.82 5.76256 4386.53 5.46967L4381.76 0.696699C4381.46 0.403806 4380.99 0.403806 4380.7 0.696699C4380.4 0.989593 4380.4 1.46447 4380.7 1.75736L4384.94 6L4380.7 10.2426C4380.4 10.5355 4380.4 11.0104 4380.7 11.3033C4380.99 11.5962 4381.46 11.5962 4381.76 11.3033L4386.53 6.53033ZM4334 6.75H4386V5.25H4334V6.75ZM-835.5 408.75H4324V407.25H-835.5V408.75ZM4329.75 403V11H4328.25V403H4329.75ZM4324 408.75C4327.18 408.75 4329.75 406.176 4329.75 403H4328.25C4328.25 405.347 4326.35 407.25 4324 407.25V408.75ZM4334 5.25C4330.82 5.25 4328.25 7.82437 4328.25 11H4329.75C4329.75 8.65279 4331.65 6.75 4334 6.75V5.25Z" fill="#414141"/>
</svg>
