<svg width="163" height="64" viewBox="0 0 163 64" fill="none" xmlns="http://www.w3.org/2000/svg">
<path d="M162.53 58.5303C162.823 58.2374 162.823 57.7626 162.53 57.4697L157.757 52.6967C157.464 52.4038 156.99 52.4038 156.697 52.6967C156.404 52.9896 156.404 53.4645 156.697 53.7574L160.939 58L156.697 62.2426C156.404 62.5355 156.404 63.0104 156.697 63.3033C156.99 63.5962 157.464 63.5962 157.757 63.3033L162.53 58.5303ZM66.7434 1V0.25V1ZM0 1.75H66.7434V0.25H0L0 1.75ZM70.9934 6V53H72.4934V6H70.9934ZM76.7434 58.75H162V57.25H76.7434V58.75ZM70.9934 53C70.9934 56.1756 73.5678 58.75 76.7434 58.75V57.25C74.3962 57.25 72.4934 55.3472 72.4934 53H70.9934ZM66.7434 1.75C69.0906 1.75 70.9934 3.65279 70.9934 6H72.4934C72.4934 2.82436 69.9191 0.25 66.7434 0.25V1.75Z" fill="#414141"/>
</svg>
