<svg width="1582" height="165" viewBox="0 0 1582 165" fill="none" xmlns="http://www.w3.org/2000/svg">
<path d="M2064.53 6.53033C2064.82 6.23744 2064.82 5.76256 2064.53 5.46967L2059.76 0.696699C2059.46 0.403806 2058.99 0.403806 2058.7 0.696699C2058.4 0.989593 2058.4 1.46447 2058.7 1.75736L2062.94 6L2058.7 10.2426C2058.4 10.5355 2058.4 11.0104 2058.7 11.3033C2058.99 11.5962 2059.46 11.5962 2059.76 11.3033L2064.53 6.53033ZM72.5195 158.981L71.7695 158.978L72.5195 158.981ZM72.9805 40.0194L73.7305 40.0223L72.9805 40.0194ZM72.2306 40.0165L71.7695 158.978L73.2694 158.984L73.7305 40.0223L72.2306 40.0165ZM77.5194 164.75H2002V163.25H77.5194V164.75ZM2007.75 159V11H2006.25V159H2007.75ZM2012 6.75H2064V5.25H2012V6.75ZM0.5 35.75H67.9806V34.25H0.5V35.75ZM2007.75 11C2007.75 8.65279 2009.65 6.75 2012 6.75V5.25C2008.82 5.25 2006.25 7.82437 2006.25 11H2007.75ZM2002 164.75C2005.18 164.75 2007.75 162.176 2007.75 159H2006.25C2006.25 161.347 2004.35 163.25 2002 163.25V164.75ZM71.7695 158.978C71.7571 162.162 74.3351 164.75 77.5194 164.75V163.25C75.1658 163.25 73.2603 161.337 73.2694 158.984L71.7695 158.978ZM73.7305 40.0223C73.7429 36.838 71.1649 34.25 67.9806 34.25V35.75C70.3342 35.75 72.2397 37.6628 72.2306 40.0165L73.7305 40.0223Z" fill="#414141"/>
</svg>
