<svg width="13" height="8" viewBox="0 0 13 8" fill="none" xmlns="http://www.w3.org/2000/svg">
<path d="M3.1582 3.31552H5.99023V7.01669C5.61589 7.14039 5.22689 7.23967 4.82324 7.31454C4.4196 7.38616 3.96224 7.42197 3.45117 7.42197C2.74154 7.42197 2.13932 7.28199 1.64453 7.00204C1.14974 6.7221 0.773763 6.30869 0.516602 5.76181C0.25944 5.21494 0.130859 4.54273 0.130859 3.74521C0.130859 2.99651 0.274089 2.34872 0.560547 1.80185C0.85026 1.25497 1.27181 0.831797 1.8252 0.532318C2.38184 0.232839 3.06055 0.0830994 3.86133 0.0830994C4.23893 0.0830994 4.61165 0.123789 4.97949 0.20517C5.34733 0.28655 5.68099 0.392344 5.98047 0.522552L5.47754 1.73349C5.25944 1.62281 5.01042 1.53004 4.73047 1.45517C4.45052 1.3803 4.15755 1.34286 3.85156 1.34286C3.41211 1.34286 3.02962 1.44378 2.7041 1.6456C2.38184 1.84742 2.13118 2.13063 1.95215 2.49521C1.77637 2.85654 1.68848 3.28297 1.68848 3.77451C1.68848 4.24 1.75195 4.65341 1.87891 5.01474C2.00586 5.37281 2.20605 5.65439 2.47949 5.85947C2.75293 6.06129 3.10938 6.1622 3.54883 6.1622C3.76367 6.1622 3.94434 6.15244 4.09082 6.1329C4.24056 6.11012 4.38053 6.08733 4.51074 6.06454V4.57529H3.1582V3.31552Z" fill="white"/>
<path d="M7.69434 7.32431V0.185638H9.20801V6.07431H12.1035V7.32431H7.69434Z" fill="white"/>
</svg>
