<svg width="13" height="8" viewBox="0 0 13 8" fill="none" xmlns="http://www.w3.org/2000/svg">
<path d="M3.1582 3.31543H5.99023V7.0166C5.61589 7.1403 5.22689 7.23958 4.82324 7.31445C4.4196 7.38607 3.96224 7.42188 3.45117 7.42188C2.74154 7.42188 2.13932 7.2819 1.64453 7.00195C1.14974 6.72201 0.773763 6.30859 0.516602 5.76172C0.25944 5.21484 0.130859 4.54264 0.130859 3.74512C0.130859 2.99642 0.274089 2.34863 0.560547 1.80176C0.85026 1.25488 1.27181 0.831706 1.8252 0.532227C2.38184 0.232747 3.06055 0.0830078 3.86133 0.0830078C4.23893 0.0830078 4.61165 0.123698 4.97949 0.205078C5.34733 0.286458 5.68099 0.392253 5.98047 0.522461L5.47754 1.7334C5.25944 1.62272 5.01042 1.52995 4.73047 1.45508C4.45052 1.38021 4.15755 1.34277 3.85156 1.34277C3.41211 1.34277 3.02962 1.44368 2.7041 1.64551C2.38184 1.84733 2.13118 2.13053 1.95215 2.49512C1.77637 2.85645 1.68848 3.28288 1.68848 3.77441C1.68848 4.23991 1.75195 4.65332 1.87891 5.01465C2.00586 5.37272 2.20605 5.6543 2.47949 5.85938C2.75293 6.0612 3.10938 6.16211 3.54883 6.16211C3.76367 6.16211 3.94434 6.15234 4.09082 6.13281C4.24056 6.11003 4.38053 6.08724 4.51074 6.06445V4.5752H3.1582V3.31543Z" fill="white"/>
<path d="M7.69434 7.32422V0.185547H9.20801V6.07422H12.1035V7.32422H7.69434Z" fill="white"/>
</svg>
