<svg width="32" height="32" viewBox="0 0 32 32" fill="none" xmlns="http://www.w3.org/2000/svg">
<circle cx="11.5" cy="11.5" r="3" stroke="#414141"/>
<circle cx="11.5" cy="20.5" r="3" stroke="#414141"/>
<circle cx="20.5" cy="11.5" r="3" stroke="#414141"/>
<path d="M26.9354 24.8136L27.289 25.1672L27.6425 24.8136L27.289 24.4601L26.9354 24.8136ZM24.8141 26.9349L24.4605 27.2885L24.8141 27.642L25.1676 27.2885L24.8141 26.9349ZM24.096 21.9742L23.6249 21.8065L23.519 22.1043L23.7424 22.3277L24.096 21.9742ZM19.7901 17.4459L19.6465 16.967L18.8445 17.2075L19.4365 17.7994L19.7901 17.4459ZM21.8358 19.4916L22.2981 19.682L22.4251 19.3738L22.1894 19.1381L21.8358 19.4916ZM21.1522 21.1517L21.3426 21.614L21.5352 21.5347L21.6145 21.3421L21.1522 21.1517ZM19.4921 21.8353L19.1385 22.1889L19.3742 22.4246L19.6825 22.2977L19.4921 21.8353ZM17.4464 19.7896L17.7999 19.436L17.2079 18.8441L16.9674 19.646L17.4464 19.7896ZM21.9747 24.0955L22.3282 23.742L22.1048 23.5185L21.807 23.6245L21.9747 24.0955ZM26.5819 24.4601L24.4605 26.5814L25.1676 27.2885L27.289 25.1672L26.5819 24.4601ZM23.7424 22.3277L26.5819 25.1672L27.289 24.4601L24.4495 21.6206L23.7424 22.3277ZM24.567 22.1418C25.0682 20.7335 24.7559 19.0986 23.627 17.9697L22.9199 18.6768C23.7656 19.5225 24.0016 20.7482 23.6249 21.8065L24.567 22.1418ZM23.627 17.9697C22.549 16.8917 21.0091 16.5583 19.6465 16.967L19.9337 17.9248C20.9582 17.6176 22.1122 17.8692 22.9199 18.6768L23.627 17.9697ZM19.4365 17.7994L21.4823 19.8452L22.1894 19.1381L20.1436 17.0923L19.4365 17.7994ZM21.3735 19.3012L20.6898 20.9613L21.6145 21.3421L22.2981 19.682L21.3735 19.3012ZM20.9618 20.6894L19.3017 21.373L19.6825 22.2977L21.3426 21.614L20.9618 20.6894ZM19.8456 21.4818L17.7999 19.436L17.0928 20.1432L19.1385 22.1889L19.8456 21.4818ZM16.9674 19.646C16.5588 21.0087 16.8921 22.5485 17.9702 23.6266L18.6773 22.9195C17.8696 22.1118 17.618 20.9577 17.9253 19.9332L16.9674 19.646ZM17.9702 23.6266C19.099 24.7554 20.734 25.0678 22.1423 24.5666L21.807 23.6245C20.7487 24.0011 19.523 23.7652 18.6773 22.9195L17.9702 23.6266ZM25.1676 26.5814L22.3282 23.742L21.6211 24.4491L24.4605 27.2885L25.1676 26.5814Z" fill="#414141"/>
</svg>
