<svg width="32" height="32" viewBox="0 0 32 32" fill="none" xmlns="http://www.w3.org/2000/svg">
<rect x="4" y="4" width="24" height="24" rx="2" stroke="#414141"/>
<path fill-rule="evenodd" clip-rule="evenodd" d="M20.9766 23.1814L21.189 23.974L22.1549 23.7152L21.9425 22.9226C22.3586 22.7047 22.6884 22.3668 22.8993 21.9653L23.6924 22.1778L23.9512 21.2119L23.1587 20.9995C23.1677 20.7757 23.1435 20.5468 23.0825 20.319C23.0215 20.0913 22.928 19.881 22.8084 19.6917L23.3885 19.1116L22.6814 18.4045L22.1009 18.985C21.7174 18.7427 21.2628 18.6149 20.7935 18.6342L20.5811 17.8417L19.6152 18.1005L19.8275 18.8931C19.4114 19.111 19.0816 19.449 18.8707 19.8505L18.0777 19.6381L17.8189 20.604L18.6113 20.8163C18.6024 21.0401 18.6266 21.2689 18.6876 21.4966C18.7486 21.7244 18.8421 21.9347 18.9618 22.1241L18.3816 22.7042L19.0888 23.4113L19.6694 22.8307C20.0528 23.073 20.5073 23.2008 20.9766 23.1814ZM22.1165 20.5778C22.2988 21.258 21.8952 21.9571 21.215 22.1393C20.5349 22.3216 19.8358 21.9179 19.6535 21.2378C19.4713 20.5577 19.8749 19.8586 20.5551 19.6763C21.2352 19.4941 21.9343 19.8977 22.1165 20.5778Z" fill="#414141"/>
<path fill-rule="evenodd" clip-rule="evenodd" d="M11.5958 18.4976L11.0963 19.467L11.9852 19.925L12.4844 18.9564C13.1351 19.2137 13.847 19.3371 14.5808 19.2978L14.7464 20.3753L14.7464 20.3753L15.7348 20.2234L15.5692 19.1459C16.2809 18.963 16.9228 18.6315 17.4663 18.1906L18.2332 18.9646L18.9436 18.2608L18.176 17.4862C18.6282 16.9377 18.9631 16.2945 19.15 15.5986L20.225 15.7739L20.386 14.7869L19.3107 14.6116C19.3319 14.262 19.3164 13.9049 19.2611 13.5447C19.2057 13.1844 19.1131 12.8391 18.9879 12.512L19.961 12.0218L19.511 11.1287L18.5382 11.6188C18.151 11.0112 17.6384 10.4983 17.0423 10.1109L17.5419 9.14148L16.653 8.68342L16.1538 9.65218C15.503 9.39484 14.7912 9.27144 14.0574 9.31077L13.8918 8.23319L13.8918 8.23317L12.9034 8.38509L13.069 9.46269C12.3574 9.64553 11.7154 9.97701 11.172 10.4179L10.4049 9.64379L9.6946 10.3477L10.4622 11.1223C10.01 11.6708 9.67512 12.314 9.48825 13.0099L8.41313 12.8345L8.25219 13.8215L9.3275 13.9968C9.30631 14.3465 9.32176 14.7036 9.37713 15.0639C9.4325 15.4241 9.52502 15.7694 9.6502 16.0965L8.67721 16.5867L9.12713 17.4797L10.0999 16.9896C10.4871 17.5973 10.9997 18.1102 11.5958 18.4976ZM14.9268 18.2579C17.1103 17.9222 18.6083 15.8801 18.2727 13.6966C17.937 11.5131 15.8949 10.0151 13.7114 10.3507C11.5279 10.6863 10.0299 12.7285 10.3655 14.912C10.7011 17.0955 12.7433 18.5935 14.9268 18.2579ZM14.471 15.2927C15.0169 15.2088 15.3914 14.6982 15.3075 14.1524C15.2236 13.6065 14.713 13.232 14.1672 13.3159C13.6213 13.3998 13.2468 13.9103 13.3307 14.4562C13.4146 15.0021 13.9251 15.3766 14.471 15.2927ZM14.6229 16.2811C15.7147 16.1132 16.4637 15.0922 16.2959 14.0004C16.1281 12.9087 15.107 12.1597 14.0152 12.3275C12.9235 12.4953 12.1745 13.5164 12.3423 14.6081C12.5101 15.6999 13.5312 16.4489 14.6229 16.2811Z" fill="#414141"/>
</svg>
