<svg width="54" height="60" viewBox="0 0 54 60" fill="none" xmlns="http://www.w3.org/2000/svg">
<path fill-rule="evenodd" clip-rule="evenodd" d="M33.3315 43.465L33.7297 44.9511L35.5408 44.4658L35.1426 42.9797C35.9227 42.5712 36.5411 41.9375 36.9365 41.1847L38.4236 41.5832L38.9089 39.7721L37.423 39.3739C37.4398 38.9543 37.3944 38.525 37.28 38.098C37.1656 37.6711 36.9903 37.2767 36.766 36.9218L37.8537 35.8341L36.5279 34.5083L35.4395 35.5967C34.7205 35.1424 33.8681 34.9027 32.9881 34.939L32.5899 33.453L30.7788 33.9383L31.177 35.4243C30.3968 35.8329 29.7784 36.4666 29.3829 37.2196L27.8961 36.8212L27.4108 38.6323L28.8966 39.0304C28.8798 39.4499 28.9252 39.8791 29.0396 40.306C29.154 40.733 29.3294 41.1274 29.5537 41.4825L28.4659 42.5702L29.7918 43.896L30.8804 42.8074C31.5993 43.2617 32.4516 43.5012 33.3315 43.465ZM35.4689 38.5833C35.8106 39.8585 35.0538 41.1694 33.7785 41.5111C32.5033 41.8528 31.1924 41.096 30.8507 39.8207C30.509 38.5454 31.2658 37.2346 32.5411 36.8929C33.8164 36.5512 35.1272 37.308 35.4689 38.5833Z" fill="#FBFCFC"/>
<path fill-rule="evenodd" clip-rule="evenodd" d="M15.7411 34.6828L14.8046 36.5003L16.4713 37.3591L17.4072 35.5429C18.6274 36.0255 19.9622 36.2569 21.338 36.1832L21.6485 38.2034L21.6485 38.2034L23.5018 37.9186L23.1912 35.8983C24.5257 35.5555 25.7293 34.9339 26.7483 34.1072L28.1864 35.5585L29.5183 34.2387L28.0791 32.7864C28.927 31.7579 29.5549 30.552 29.9052 29.2471L31.921 29.5758L32.2228 27.7253L30.2066 27.3965C30.2463 26.7411 30.2173 26.0714 30.1135 25.396C30.0097 24.7205 29.8362 24.073 29.6014 23.4597L31.4259 22.5406L30.5823 20.8661L28.7582 21.785C28.0321 20.6457 27.071 19.684 25.9534 18.9577L26.8901 17.14L25.2233 16.2812L24.2874 18.0976C23.0672 17.6151 21.7325 17.3837 20.3567 17.4574L20.0462 15.437L20.0462 15.4369L18.1929 15.7218L18.5035 17.7423C17.1691 18.0851 15.9655 18.7067 14.9466 19.5333L13.5083 18.0819L12.1764 19.4016L13.6157 20.8541C12.7678 21.8825 12.1399 23.0884 11.7895 24.3932L9.77367 24.0645L9.4719 25.9151L11.4881 26.2438C11.4484 26.8994 11.4773 27.5691 11.5812 28.2446C11.685 28.92 11.8585 29.5674 12.0932 30.1806L10.2688 31.0997L11.1124 32.7742L12.9364 31.8553C13.6624 32.9947 14.6235 33.9564 15.7411 34.6828ZM21.9868 34.2332C26.0808 33.604 28.8896 29.7749 28.2603 25.6809C27.631 21.5868 23.802 18.7781 19.7079 19.4074C15.6139 20.0366 12.8051 23.8657 13.4344 27.9597C14.0637 32.0538 17.8927 34.8625 21.9868 34.2332ZM21.1322 28.6735C22.1557 28.5162 22.8579 27.5589 22.7006 26.5354C22.5433 25.5119 21.586 24.8097 20.5625 24.967C19.539 25.1244 18.8368 26.0816 18.9941 27.1051C19.1514 28.1286 20.1087 28.8308 21.1322 28.6735ZM21.4171 30.5267C23.4641 30.2121 24.8685 28.2976 24.5538 26.2506C24.2392 24.2035 22.3247 22.7992 20.2776 23.1138C18.2306 23.4284 16.8262 25.3429 17.1409 27.39C17.4555 29.437 19.37 30.8414 21.4171 30.5267Z" fill="#FBFCFC"/>
</svg>
