<svg width="32" height="32" viewBox="0 0 32 32" fill="none" xmlns="http://www.w3.org/2000/svg">
<path d="M23.071 10.3429C22.4998 9.79705 21.7401 9.49243 20.95 9.49243C20.1599 9.49243 19.4002 9.79705 18.829 10.3429L16.569 12.6029C16.0103 12.3472 15.3879 12.2647 14.7819 12.3659C14.176 12.4671 13.6142 12.7475 13.169 13.1709L8.92897 17.4139C8.64671 17.6917 8.42223 18.0226 8.26849 18.3876C8.11475 18.7525 8.03479 19.1443 8.03323 19.5403C8.03166 19.9363 8.10852 20.3288 8.25937 20.6949C8.41022 21.0611 8.63207 21.3938 8.91213 21.6738C9.1922 21.9538 9.52492 22.1755 9.89112 22.3263C10.2573 22.4771 10.6498 22.5538 11.0458 22.5522C11.4418 22.5505 11.8336 22.4705 12.1985 22.3166C12.5634 22.1628 12.8943 21.9382 13.172 21.6559L15.422 19.4059C15.9789 19.6782 16.6073 19.7689 17.2185 19.6653C17.8297 19.5616 18.393 19.2687 18.829 18.8279L23.071 14.5849C23.6334 14.0223 23.9493 13.2594 23.9493 12.4639C23.9493 11.6684 23.6334 10.9055 23.071 10.3429ZM16.707 16.7069L15.293 18.1209C15.1072 17.9352 14.9598 17.7147 14.8592 17.472C14.7587 17.2293 14.7069 16.9691 14.7069 16.7064C14.7069 16.4437 14.7587 16.1836 14.8592 15.9409C14.9598 15.6982 15.1072 15.4776 15.293 15.2919L16.708 13.8789C17.0828 14.2541 17.2932 14.7628 17.293 15.2931C17.2929 15.8234 17.0821 16.332 16.707 16.7069ZM12.465 20.9489C12.084 21.3128 11.5773 21.5159 11.0505 21.5159C10.5236 21.5159 10.017 21.3128 9.63597 20.9489C9.26103 20.5739 9.0504 20.0652 9.0504 19.5349C9.0504 19.0046 9.26103 18.496 9.63597 18.1209L13.879 13.8779C14.124 13.6268 14.4324 13.4467 14.7715 13.3567C15.1106 13.2668 15.4677 13.2703 15.805 13.3669L14.586 14.5849C14.3073 14.8635 14.0863 15.1942 13.9355 15.5582C13.7847 15.9223 13.7071 16.3124 13.7071 16.7064C13.7071 17.1004 13.7847 17.4906 13.9355 17.8546C14.0863 18.2186 14.3073 18.5493 14.586 18.8279L12.465 20.9489ZM22.365 13.8779L18.123 18.1209C17.8729 18.3603 17.5658 18.5319 17.2309 18.6194C16.8959 18.7069 16.5442 18.7074 16.209 18.6209L17.415 17.4149C17.9774 16.8523 18.2933 16.0894 18.2933 15.2939C18.2933 14.4984 17.9774 13.7355 17.415 13.1729L19.536 11.0509C19.9168 10.6871 20.4233 10.4841 20.95 10.4841C21.4767 10.4841 21.9831 10.6871 22.364 11.0509C22.7389 11.426 22.9495 11.9346 22.9495 12.4649C22.9495 12.9952 22.7389 13.5039 22.364 13.8789L22.365 13.8779Z" fill="#2064B4"/>
</svg>
