<svg width="32" height="32" viewBox="0 0 32 32" fill="none" xmlns="http://www.w3.org/2000/svg">
<circle cx="11.5" cy="11.5" r="3" stroke="#2064B4"/>
<circle cx="11.5" cy="20.5" r="3" stroke="#2064B4"/>
<circle cx="20.5" cy="11.5" r="3" stroke="#2064B4"/>
<path d="M26.9347 24.8134L27.2883 25.1669L27.6418 24.8134L27.2883 24.4598L26.9347 24.8134ZM24.8134 26.9347L24.4599 27.2882L24.8134 27.6418L25.167 27.2882L24.8134 26.9347ZM24.0953 21.9739L23.6243 21.8063L23.5183 22.104L23.7418 22.3275L24.0953 21.9739ZM19.7894 17.4456L19.6458 16.9667L18.8439 17.2072L19.4359 17.7992L19.7894 17.4456ZM21.8351 19.4914L22.2975 19.6818L22.4244 19.3735L22.1887 19.1378L21.8351 19.4914ZM21.1515 21.1514L21.3419 21.6138L21.5345 21.5344L21.6138 21.3418L21.1515 21.1514ZM19.4914 21.8351L19.1379 22.1886L19.3736 22.4244L19.6818 22.2974L19.4914 21.8351ZM17.4457 19.7894L17.7992 19.4358L17.2073 18.8438L16.9668 19.6457L17.4457 19.7894ZM21.974 24.0953L22.3276 23.7417L22.1041 23.5183L21.8064 23.6242L21.974 24.0953ZM26.5812 24.4598L24.4599 26.5811L25.167 27.2882L27.2883 25.1669L26.5812 24.4598ZM23.7418 22.3275L26.5812 25.1669L27.2883 24.4598L24.4489 21.6204L23.7418 22.3275ZM24.5664 22.1416C25.0676 20.7333 24.7552 19.0983 23.6264 17.9695L22.9193 18.6766C23.7649 19.5223 24.0009 20.7479 23.6243 21.8063L24.5664 22.1416ZM23.6264 17.9695C22.5483 16.8914 21.0085 16.5581 19.6458 16.9667L19.9331 17.9246C20.9575 17.6174 22.1116 17.8689 22.9193 18.6766L23.6264 17.9695ZM19.4359 17.7992L21.4816 19.8449L22.1887 19.1378L20.143 17.0921L19.4359 17.7992ZM21.3728 19.301L20.6892 20.961L21.6138 21.3418L22.2975 19.6818L21.3728 19.301ZM20.9611 20.6891L19.301 21.3728L19.6818 22.2974L21.3419 21.6138L20.9611 20.6891ZM19.845 21.4815L17.7992 19.4358L17.0921 20.1429L19.1379 22.1886L19.845 21.4815ZM16.9668 19.6457C16.5581 21.0084 16.8915 22.5483 17.9695 23.6263L18.6766 22.9192C17.8689 22.1115 17.6174 20.9574 17.9246 19.933L16.9668 19.6457ZM17.9695 23.6263C19.0983 24.7552 20.7333 25.0675 22.1417 24.5663L21.8064 23.6242C20.748 24.0009 19.5223 23.7649 18.6766 22.9192L17.9695 23.6263ZM25.167 26.5811L22.3276 23.7417L21.6205 24.4488L24.4599 27.2882L25.167 26.5811Z" fill="#2064B4"/>
</svg>
