<svg width="32" height="32" viewBox="0 0 32 32" fill="none" xmlns="http://www.w3.org/2000/svg">
<rect x="16" y="1" width="21.2132" height="21.2132" transform="rotate(45 16 1)" stroke="#414141"/>
<path fill-rule="evenodd" clip-rule="evenodd" d="M17.8695 12.5H16.2394V11.5H19.5771V14.8376H18.5771V13.2067C17.4763 14.3036 16.6269 15.1149 15.7637 15.6508C14.7959 16.2517 13.8258 16.5 12.5 16.5V15.5C13.6742 15.5 14.4541 15.2869 15.2363 14.8012C15.991 14.3327 16.7595 13.6054 17.8695 12.5Z" fill="#414141"/>
<path fill-rule="evenodd" clip-rule="evenodd" d="M17.8695 19.5H16.2394V20.5H19.5771V17.1624H18.5771V18.7933C17.4763 17.6964 16.6269 16.8851 15.7637 16.3492C14.7959 15.7483 13.8258 15.5 12.5 15.5V16.5C13.6742 16.5 14.4541 16.7131 15.2363 17.1988C15.991 17.6673 16.7595 18.3946 17.8695 19.5Z" fill="#414141"/>
</svg>
