<svg width="32" height="32" viewBox="0 0 32 32" fill="none" xmlns="http://www.w3.org/2000/svg">
<path d="M22.3145 8.5C22.5906 8.5 22.8145 8.72386 22.8145 9L22.8145 13.5C22.8145 13.7761 22.5906 14 22.3145 14C22.0383 14 21.8145 13.7761 21.8145 13.5L21.8145 9.5L17.8145 9.5C17.5383 9.5 17.3145 9.27614 17.3145 9C17.3145 8.72386 17.5383 8.5 17.8145 8.5L22.3145 8.5ZM16.304 14.3033L21.9609 8.64645L22.668 9.35355L17.0112 15.0104L16.304 14.3033Z" fill="#414141"/>
<path d="M9 22.8135C8.72386 22.8135 8.5 22.5896 8.5 22.3135L8.5 17.8135C8.5 17.5373 8.72386 17.3135 9 17.3135C9.27614 17.3135 9.5 17.5373 9.5 17.8135L9.5 21.8135L13.5 21.8135C13.7761 21.8135 14 22.0373 14 22.3135C14 22.5896 13.7761 22.8135 13.5 22.8135L9 22.8135ZM15.0104 17.0102L9.35355 22.667L8.64645 21.9599L14.3033 16.3031L15.0104 17.0102Z" fill="#414141"/>
</svg>
