<svg width="32" height="32" viewBox="0 0 32 32" fill="none" xmlns="http://www.w3.org/2000/svg">
<rect x="28" y="4" width="24" height="24" rx="2" transform="rotate(90 28 4)" stroke="#414141"/>
<path fill-rule="evenodd" clip-rule="evenodd" d="M8.81906 20.9767L8.02646 21.1891L8.28528 22.155L9.07788 21.9427C9.29577 22.3587 9.6337 22.6885 10.0352 22.8994L9.8227 23.6925L10.7886 23.9514L11.001 23.1589C11.2248 23.1678 11.4537 23.1436 11.6815 23.0826C11.9091 23.0216 12.1195 22.9281 12.3088 22.8085L12.8889 23.3886L13.596 22.6815L13.0155 22.101C13.2578 21.7175 13.3856 21.2629 13.3663 20.7936L14.1588 20.5812L13.9 19.6153L13.1074 19.8277C12.8895 19.4115 12.5515 19.0817 12.15 18.8708L12.3624 18.0778L11.3965 17.819L11.1842 18.6115C10.9604 18.6025 10.7315 18.6267 10.5039 18.6877C10.2761 18.7488 10.0658 18.8423 9.87642 18.9619L9.29627 18.3818L8.58917 19.0889L9.16976 19.6695C8.9275 20.0529 8.79973 20.5075 8.81906 20.9767ZM11.4226 22.1167C10.7425 22.2989 10.0434 21.8953 9.86116 21.2151C9.67891 20.535 10.0825 19.8359 10.7627 19.6537C11.4428 19.4714 12.1419 19.875 12.3242 20.5552C12.5064 21.2353 12.1028 21.9344 11.4226 22.1167Z" fill="#414141"/>
<path fill-rule="evenodd" clip-rule="evenodd" d="M13.5024 11.596L12.533 11.0965L12.075 11.9855L13.0436 12.4846C12.7863 13.1354 12.6629 13.8472 12.7022 14.581L11.6247 14.7466L11.6247 14.7466L11.7766 15.735L12.8541 15.5694C13.037 16.2811 13.3685 16.9231 13.8094 17.4665L13.0354 18.2335L13.7392 18.9438L14.5138 18.1763C15.0623 18.6285 15.7055 18.9634 16.4014 19.1502L16.2261 20.2253L17.2131 20.3862L17.3884 19.3109C17.738 19.3321 18.0951 19.3167 18.4553 19.2613C18.8156 19.2059 19.1609 19.1134 19.488 18.9882L19.9782 19.9612L20.8713 19.5113L20.3812 18.5384C20.9888 18.1512 21.5017 17.6386 21.8891 17.0426L22.8585 17.5421L23.3166 16.6532L22.3478 16.154C22.6052 15.5033 22.7286 14.7914 22.6892 14.0577L23.7668 13.892L23.7668 13.892L23.6149 12.9036L22.5373 13.0693C22.3545 12.3576 22.023 11.7157 21.5821 11.1723L22.3562 10.4052L21.6523 9.69485L20.8777 10.4625C20.3292 10.0103 19.686 9.67536 18.9901 9.4885L19.1655 8.41337L18.1785 8.25243L18.0032 9.32775C17.6535 9.30656 17.2964 9.322 16.9361 9.37737C16.5759 9.43274 16.2306 9.52526 15.9035 9.65044L15.4133 8.67746L14.5203 9.12737L15.0104 10.1002C14.4027 10.4874 13.8898 11 13.5024 11.596ZM13.7421 14.927C14.0778 17.1105 16.1199 18.6085 18.3034 18.2729C20.4869 17.9373 21.9849 15.8951 21.6493 13.7116C21.3137 11.5281 19.2715 10.0301 17.088 10.3658C14.9045 10.7014 13.4065 12.7435 13.7421 14.927ZM16.7073 14.4713C16.7912 15.0171 17.3018 15.3916 17.8476 15.3077C18.3935 15.2238 18.768 14.7133 18.6841 14.1674C18.6002 13.6215 18.0897 13.247 17.5438 13.3309C16.9979 13.4148 16.6234 13.9254 16.7073 14.4713ZM15.7189 14.6232C15.8868 15.7149 16.9078 16.4639 17.9996 16.2961C19.0913 16.1283 19.8403 15.1072 19.6725 14.0155C19.5047 12.9237 18.4836 12.1747 17.3919 12.3425C16.3001 12.5104 15.5511 13.5314 15.7189 14.6232Z" fill="#414141"/>
</svg>
