<svg width="61" height="60" viewBox="0 0 61 60" fill="none" xmlns="http://www.w3.org/2000/svg">
<path fill-rule="evenodd" clip-rule="evenodd" d="M39.4623 43.465L39.8606 44.9511L41.6717 44.4658L41.2735 42.9797C42.0536 42.5712 42.6719 41.9375 43.0674 41.1847L44.5545 41.5832L45.0398 39.7721L43.5539 39.3739C43.5707 38.9543 43.5253 38.525 43.4108 38.098C43.2965 37.6711 43.1212 37.2767 42.8969 36.9218L43.9846 35.8341L42.6588 34.5083L41.5703 35.5967C40.8514 35.1424 39.9989 34.9027 39.119 34.939L38.7208 33.453L36.9097 33.9383L37.3079 35.4243C36.5276 35.8329 35.9092 36.4666 35.5138 37.2196L34.0269 36.8212L33.5416 38.6323L35.0275 39.0304C35.0107 39.4499 35.0561 39.8791 35.1705 40.306C35.2849 40.733 35.4602 41.1274 35.6846 41.4825L34.5968 42.5702L35.9226 43.896L37.0112 42.8074C37.7301 43.2617 38.5825 43.5012 39.4623 43.465ZM41.5997 38.5833C41.9414 39.8585 41.1846 41.1694 39.9094 41.5111C38.6341 41.8528 37.3233 41.096 36.9816 39.8207C36.6399 38.5454 37.3967 37.2346 38.672 36.8929C39.9472 36.5512 41.258 37.308 41.5997 38.5833Z" fill="#FBFCFC"/>
<path fill-rule="evenodd" clip-rule="evenodd" d="M21.872 34.6828L20.9355 36.5003L22.6022 37.3591L23.5381 35.5429C24.7583 36.0255 26.093 36.2569 27.4688 36.1832L27.7794 38.2034L27.7794 38.2034L29.6326 37.9186L29.3221 35.8983C30.6565 35.5555 31.8602 34.9339 32.8791 34.1072L34.3173 35.5585L35.6491 34.2387L34.21 32.7864C35.0578 31.7579 35.6858 30.552 36.0361 29.2471L38.0519 29.5758L38.3536 27.7253L36.3375 27.3965C36.3772 26.7411 36.3482 26.0714 36.2444 25.396C36.1406 24.7205 35.9671 24.073 35.7323 23.4597L37.5567 22.5406L36.7131 20.8661L34.889 21.785C34.163 20.6457 33.2019 19.684 32.0843 18.9577L33.0209 17.14L31.3542 16.2812L30.4182 18.0976C29.1981 17.6151 27.8633 17.3837 26.4876 17.4574L26.177 15.437L26.177 15.4369L24.3238 15.7218L24.6344 17.7423C23.3 18.0851 22.0963 18.7067 21.0774 19.5333L19.6392 18.0819L18.3073 19.4016L19.7466 20.8541C18.8987 21.8825 18.2708 23.0884 17.9204 24.3932L15.9045 24.0645L15.6028 25.9151L17.619 26.2438C17.5793 26.8994 17.6082 27.5691 17.712 28.2446C17.8158 28.92 17.9893 29.5674 18.224 30.1806L16.3997 31.0997L17.2433 32.7742L19.0673 31.8553C19.7933 32.9947 20.7544 33.9564 21.872 34.6828ZM28.1176 34.2332C32.2117 33.604 35.0204 29.7749 34.3912 25.6809C33.7619 21.5868 29.9328 18.7781 25.8388 19.4074C21.7447 20.0366 18.936 23.8657 19.5653 27.9597C20.1946 32.0538 24.0236 34.8625 28.1176 34.2332ZM27.2631 28.6735C28.2866 28.5162 28.9888 27.5589 28.8314 26.5354C28.6741 25.5119 27.7169 24.8097 26.6933 24.967C25.6698 25.1244 24.9676 26.0816 25.125 27.1051C25.2823 28.1286 26.2395 28.8308 27.2631 28.6735ZM27.5479 30.5267C29.5949 30.2121 30.9993 28.2976 30.6847 26.2506C30.37 24.2035 28.4555 22.7992 26.4085 23.1138C24.3615 23.4284 22.9571 25.3429 23.2717 27.39C23.5864 29.437 25.5009 30.8414 27.5479 30.5267Z" fill="#FBFCFC"/>
</svg>
