<svg width="32" height="32" viewBox="0 0 32 32" fill="none" xmlns="http://www.w3.org/2000/svg">
<path d="M14.6213 17.2426L16.7426 15.1213M16.7426 15.1213L14.6213 13M16.7426 15.1213L7.99998 15.1213" stroke="#414141"/>
<path fill-rule="evenodd" clip-rule="evenodd" d="M22 15C22 17.7614 19.7614 20 17 20C15.8742 20 14.8352 19.6279 13.9995 19H12.5278C13.6264 20.2275 15.223 21 17 21C20.3137 21 23 18.3137 23 15C23 11.6863 20.3137 9 17 9C15.223 9 13.6264 9.7725 12.5278 11H13.9995C14.8352 10.3721 15.8742 10 17 10C19.7614 10 22 12.2386 22 15Z" fill="#414141"/>
</svg>
