<svg width="32" height="32" viewBox="0 0 32 32" fill="none" xmlns="http://www.w3.org/2000/svg">
<path d="M20.0001 14.9C20.467 14.5749 20.8476 14.1409 21.1089 13.6356C21.3703 13.1303 21.5046 12.5689 21.5001 12C21.5001 11.0717 21.1313 10.1815 20.475 9.52513C19.8186 8.86875 18.9283 8.5 18.0001 8.5C17.0718 8.5 16.1816 8.86875 15.5252 9.52513C14.8688 10.1815 14.5001 11.0717 14.5001 12C14.4842 12.2052 14.5186 12.4111 14.6001 12.6C14.4122 12.5149 14.2054 12.4804 14.0001 12.5C13.0753 12.5112 12.1915 12.8835 11.5375 13.5375C10.8836 14.1914 10.5112 15.0752 10.5001 16C10.5075 16.5667 10.6469 17.1239 10.9073 17.6273C11.1677 18.1307 11.5418 18.5665 12.0001 18.9C10.9666 19.2924 10.0777 19.991 9.45219 20.9024C8.8267 21.8139 8.49451 22.8946 8.50007 24H9.50007C9.50007 22.8065 9.97418 21.6619 10.8181 20.818C11.662 19.9741 12.8066 19.5 14.0001 19.5C15.1935 19.5 16.3381 19.9741 17.182 20.818C18.026 21.6619 18.5001 22.8065 18.5001 24H19.5001C19.4855 22.8993 19.1453 21.8276 18.5224 20.92C17.8995 20.0124 17.0219 19.3095 16.0001 18.9C16.467 18.5749 16.8476 18.1409 17.1089 17.6356C17.3703 17.1303 17.5046 16.5689 17.5001 16C17.5101 15.8669 17.5101 15.7332 17.5001 15.6C17.9541 15.462 17.8001 15.5 18.0001 15.5C18.5917 15.4975 19.178 15.6122 19.7251 15.8374C20.2722 16.0627 20.7693 16.394 21.1877 16.8124C21.606 17.2308 21.9374 17.7278 22.1626 18.2749C22.3879 18.822 22.5026 19.4083 22.5001 20H23.5001C23.4855 18.8993 23.1453 17.8276 22.5224 16.92C21.8995 16.0124 21.0219 15.3095 20.0001 14.9V14.9ZM15.5671 12.6C15.5225 12.4031 15.5001 12.2019 15.5001 12C15.5001 11.5055 15.6467 11.0222 15.9214 10.6111C16.1961 10.1999 16.5866 9.87953 17.0434 9.69031C17.5002 9.50109 18.0028 9.45157 18.4878 9.54803C18.9728 9.6445 19.4182 9.88261 19.7678 10.2322C20.1175 10.5819 20.3556 11.0273 20.452 11.5123C20.5485 11.9972 20.499 12.4999 20.3098 12.9567C20.1205 13.4135 19.8001 13.804 19.389 14.0787C18.9779 14.3534 18.4945 14.5 18.0001 14.5C17.6914 14.4814 17.3876 14.4139 17.1001 14.3C16.7955 13.6954 16.3047 13.2046 15.7001 12.9L15.5671 12.6ZM14.0001 18.5C13.5056 18.5 13.0223 18.3534 12.6112 18.0787C12.2 17.804 11.8796 17.4135 11.6904 16.9567C11.5012 16.4999 11.4516 15.9972 11.5481 15.5123C11.6446 15.0273 11.8827 14.5819 12.2323 14.2322C12.5819 13.8826 13.0274 13.6445 13.5123 13.548C13.9973 13.4516 14.4999 13.5011 14.9568 13.6903C15.4136 13.8795 15.804 14.1999 16.0787 14.6111C16.3534 15.0222 16.5001 15.5055 16.5001 16C16.5033 16.3292 16.4408 16.6557 16.3163 16.9605C16.1918 17.2653 16.0078 17.5421 15.775 17.7749C15.5422 18.0077 15.2653 18.1917 14.9605 18.3162C14.6558 18.4407 14.3293 18.5032 14.0001 18.5V18.5Z" fill="#414141"/>
</svg>
