<svg width="32" height="32" viewBox="0 0 32 32" fill="none" xmlns="http://www.w3.org/2000/svg">
<mask id="path-1-inside-1_20015276_178985" fill="white">
<path d="M0 3C0 1.34315 1.34315 0 3 0H32V32H3C1.34315 32 0 30.6569 0 29V3Z"/>
</mask>
<path d="M0 3C0 1.34315 1.34315 0 3 0H32V32H3C1.34315 32 0 30.6569 0 29V3Z" fill="white"/>
<path fill-rule="evenodd" clip-rule="evenodd" d="M20.9758 23.1814L21.1881 23.974L22.1541 23.7152L21.9417 22.9226C22.3577 22.7047 22.6875 22.3668 22.8984 21.9653L23.6916 22.1778L23.9504 21.2119L23.1579 20.9995C23.1668 20.7757 23.1426 20.5468 23.0816 20.319C23.0206 20.0913 22.9271 19.881 22.8075 19.6917L23.3876 19.1116L22.6805 18.4045L22.1 18.985C21.7166 18.7427 21.2619 18.6149 20.7926 18.6342L20.5803 17.8417L19.6143 18.1005L19.8267 18.8931C19.4106 19.111 19.0808 19.449 18.8698 19.8505L18.0769 19.6381L17.818 20.604L18.6105 20.8163C18.6015 21.0401 18.6258 21.2689 18.6868 21.4966C18.7478 21.7244 18.8413 21.9347 18.9609 22.1241L18.3808 22.7042L19.0879 23.4113L19.6685 22.8307C20.0519 23.073 20.5065 23.2008 20.9758 23.1814ZM22.1157 20.5778C22.2979 21.258 21.8943 21.9571 21.2142 22.1393C20.534 22.3216 19.8349 21.9179 19.6527 21.2378C19.4704 20.5577 19.8741 19.8586 20.5542 19.6763C21.2343 19.4941 21.9334 19.8977 22.1157 20.5778Z" fill="#414141"/>
<path fill-rule="evenodd" clip-rule="evenodd" d="M11.5955 18.4976L11.0961 19.467L11.985 19.925L12.4841 18.9564C13.1349 19.2137 13.8468 19.3371 14.5805 19.2978L14.7461 20.3753L14.7461 20.3753L15.7345 20.2234L15.5689 19.1459C16.2806 18.963 16.9226 18.6315 17.466 18.1906L18.233 18.9646L18.9433 18.2608L18.1758 17.4862C18.628 16.9377 18.9629 16.2945 19.1497 15.5986L20.2248 15.7739L20.3857 14.7869L19.3104 14.6116C19.3316 14.262 19.3162 13.9049 19.2608 13.5447C19.2054 13.1844 19.1129 12.8391 18.9877 12.512L19.9607 12.0218L19.5108 11.1287L18.538 11.6188C18.1507 11.0112 17.6381 10.4983 17.0421 10.1109L17.5416 9.14148L16.6527 8.68342L16.1535 9.65218C15.5028 9.39484 14.7909 9.27144 14.0572 9.31077L13.8916 8.23319L13.8916 8.23317L12.9032 8.38509L13.0688 9.46269C12.3571 9.64553 11.7152 9.97701 11.1718 10.4179L10.4047 9.64379L9.69436 10.3477L10.462 11.1223C10.0098 11.6708 9.67487 12.314 9.48801 13.0099L8.41289 12.8345L8.25194 13.8215L9.32726 13.9968C9.30607 14.3465 9.32151 14.7036 9.37689 15.0639C9.43225 15.4241 9.52478 15.7694 9.64996 16.0965L8.67697 16.5867L9.12688 17.4797L10.0997 16.9896C10.4869 17.5973 10.9995 18.1102 11.5955 18.4976ZM14.9265 18.2579C17.11 17.9222 18.608 15.8801 18.2724 13.6966C17.9368 11.5131 15.8947 10.0151 13.7112 10.3507C11.5277 10.6863 10.0297 12.7285 10.3653 14.912C10.7009 17.0955 12.743 18.5935 14.9265 18.2579ZM14.4708 15.2927C15.0166 15.2088 15.3911 14.6982 15.3072 14.1524C15.2233 13.6065 14.7128 13.232 14.1669 13.3159C13.621 13.3998 13.2465 13.9103 13.3305 14.4562C13.4144 15.0021 13.9249 15.3766 14.4708 15.2927ZM14.6227 16.2811C15.7144 16.1132 16.4634 15.0922 16.2956 14.0004C16.1278 12.9087 15.1067 12.1597 14.015 12.3275C12.9232 12.4953 12.1742 13.5164 12.3421 14.6081C12.5099 15.6999 13.5309 16.4489 14.6227 16.2811Z" fill="#414141"/>
<path d="M-1 3C-1 0.790861 0.790861 -1 3 -1H33L31 1H3C1.89543 1 1 1.89543 1 3H-1ZM33 33H3C0.790861 33 -1 31.2091 -1 29H1C1 30.1046 1.89543 31 3 31H31L33 33ZM3 33C0.790861 33 -1 31.2091 -1 29V3C-1 0.790861 0.790861 -1 3 -1V1C1.89543 1 1 1.89543 1 3V29C1 30.1046 1.89543 31 3 31V33ZM33 -1V33L31 31V1L33 -1Z" fill="#E8E8E8" mask="url(#path-1-inside-1_20015276_178985)"/>
</svg>
