<svg width="60" height="60" viewBox="0 0 60 60" fill="none" xmlns="http://www.w3.org/2000/svg">
<path fill-rule="evenodd" clip-rule="evenodd" d="M39.3315 43.465L39.7297 44.9511L41.5408 44.4658L41.1426 42.9797C41.9227 42.5712 42.5411 41.9375 42.9365 41.1847L44.4236 41.5832L44.9089 39.7721L43.423 39.3739C43.4398 38.9543 43.3944 38.525 43.28 38.098C43.1656 37.6711 42.9903 37.2767 42.766 36.9218L43.8537 35.8341L42.5279 34.5083L41.4395 35.5967C40.7205 35.1424 39.8681 34.9027 38.9881 34.939L38.5899 33.453L36.7788 33.9383L37.177 35.4243C36.3968 35.8329 35.7784 36.4666 35.3829 37.2196L33.8961 36.8212L33.4108 38.6323L34.8966 39.0304C34.8798 39.4499 34.9252 39.8791 35.0396 40.306C35.154 40.733 35.3294 41.1274 35.5537 41.4825L34.4659 42.5702L35.7918 43.896L36.8804 42.8074C37.5993 43.2617 38.4516 43.5012 39.3315 43.465ZM41.4689 38.5833C41.8106 39.8585 41.0538 41.1694 39.7785 41.5111C38.5033 41.8528 37.1924 41.096 36.8507 39.8207C36.509 38.5454 37.2658 37.2346 38.5411 36.8929C39.8164 36.5512 41.1272 37.308 41.4689 38.5833Z" fill="#FBFCFC"/>
<path fill-rule="evenodd" clip-rule="evenodd" d="M21.7411 34.6828L20.8046 36.5003L22.4713 37.3591L23.4072 35.5429C24.6274 36.0255 25.9622 36.2569 27.338 36.1832L27.6485 38.2034L27.6485 38.2034L29.5018 37.9186L29.1912 35.8983C30.5257 35.5555 31.7293 34.9339 32.7483 34.1072L34.1864 35.5585L35.5183 34.2387L34.0791 32.7864C34.927 31.7579 35.5549 30.552 35.9052 29.2471L37.921 29.5758L38.2228 27.7253L36.2066 27.3965C36.2463 26.7411 36.2173 26.0714 36.1135 25.396C36.0097 24.7205 35.8362 24.073 35.6014 23.4597L37.4259 22.5406L36.5823 20.8661L34.7582 21.785C34.0321 20.6457 33.071 19.684 31.9534 18.9577L32.8901 17.14L31.2233 16.2812L30.2874 18.0976C29.0672 17.6151 27.7325 17.3837 26.3567 17.4574L26.0462 15.437L26.0462 15.4369L24.1929 15.7218L24.5035 17.7423C23.1691 18.0851 21.9655 18.7067 20.9466 19.5333L19.5083 18.0819L18.1764 19.4016L19.6157 20.8541C18.7678 21.8825 18.1399 23.0884 17.7895 24.3932L15.7737 24.0645L15.4719 25.9151L17.4881 26.2438C17.4484 26.8994 17.4773 27.5691 17.5812 28.2446C17.685 28.92 17.8585 29.5674 18.0932 30.1806L16.2688 31.0997L17.1124 32.7742L18.9364 31.8553C19.6624 32.9947 20.6235 33.9564 21.7411 34.6828ZM27.9868 34.2332C32.0808 33.604 34.8896 29.7749 34.2603 25.6809C33.631 21.5868 29.802 18.7781 25.7079 19.4074C21.6139 20.0366 18.8051 23.8657 19.4344 27.9597C20.0637 32.0538 23.8927 34.8625 27.9868 34.2332ZM27.1322 28.6735C28.1557 28.5162 28.8579 27.5589 28.7006 26.5354C28.5433 25.5119 27.586 24.8097 26.5625 24.967C25.539 25.1244 24.8368 26.0816 24.9941 27.1051C25.1514 28.1286 26.1087 28.8308 27.1322 28.6735ZM27.4171 30.5267C29.4641 30.2121 30.8685 28.2976 30.5538 26.2506C30.2392 24.2035 28.3247 22.7992 26.2776 23.1138C24.2306 23.4284 22.8262 25.3429 23.1409 27.39C23.4555 29.437 25.37 30.8414 27.4171 30.5267Z" fill="#FBFCFC"/>
</svg>
