<svg width="61" height="60" viewBox="0 0 61 60" fill="none" xmlns="http://www.w3.org/2000/svg">
<path fill-rule="evenodd" clip-rule="evenodd" d="M33.6361 23.4375H30.5797V21.5625H36.8379V27.8206H34.9629V24.7626C32.899 26.8192 31.3064 28.3405 29.6878 29.3453C27.8733 30.4719 26.0542 30.9375 23.5684 30.9375V29.0625C25.77 29.0625 27.2322 28.6629 28.6989 27.7523C30.1139 26.8738 31.5549 25.5101 33.6361 23.4375Z" fill="#FBFCFC"/>
<path fill-rule="evenodd" clip-rule="evenodd" d="M33.6361 36.5625H30.5797V38.4375H36.8379V32.1794H34.9629V35.2374C32.899 33.1808 31.3064 31.6595 29.6878 30.6547C27.8733 29.5281 26.0542 29.0625 23.5684 29.0625V30.9375C25.77 30.9375 27.2322 31.3371 28.6989 32.2477C30.1139 33.1262 31.5549 34.4899 33.6361 36.5625Z" fill="#FBFCFC"/>
</svg>
