<svg width="32" height="32" viewBox="0 0 32 32" fill="none" xmlns="http://www.w3.org/2000/svg">
<rect x="28" y="4" width="24" height="24" rx="2" transform="rotate(90 28 4)" stroke="#414141"/>
<path fill-rule="evenodd" clip-rule="evenodd" d="M8.81851 20.9766L8.02591 21.189L8.28473 22.1549L9.07733 21.9425C9.29522 22.3586 9.63315 22.6884 10.0347 22.8993L9.82215 23.6924L10.7881 23.9512L11.0004 23.1587C11.2242 23.1677 11.4532 23.1435 11.6809 23.0825C11.9086 23.0215 12.1189 22.928 12.3082 22.8084L12.8883 23.3885L13.5954 22.6814L13.0149 22.1009C13.2572 21.7174 13.385 21.2628 13.3657 20.7935L14.1582 20.5811L13.8994 19.6152L13.1069 19.8275C12.889 19.4114 12.551 19.0816 12.1494 18.8707L12.3619 18.0777L11.396 17.8189L11.1836 18.6113C10.9599 18.6024 10.731 18.6266 10.5033 18.6876C10.2756 18.7486 10.0652 18.8421 9.87587 18.9618L9.29572 18.3816L8.58862 19.0888L9.16921 19.6694C8.92695 20.0528 8.79918 20.5073 8.81851 20.9766ZM11.4221 22.1165C10.7419 22.2988 10.0428 21.8952 9.86061 21.215C9.67836 20.5349 10.082 19.8358 10.7621 19.6535C11.4423 19.4713 12.1414 19.8749 12.3236 20.5551C12.5059 21.2352 12.1022 21.9343 11.4221 22.1165Z" fill="#414141"/>
<path fill-rule="evenodd" clip-rule="evenodd" d="M13.5024 11.5958L12.533 11.0963L12.075 11.9852L13.0436 12.4844C12.7863 13.1351 12.6629 13.847 12.7022 14.5808L11.6247 14.7464L11.6247 14.7464L11.7766 15.7348L12.8541 15.5692C13.037 16.2809 13.3685 16.9228 13.8094 17.4663L13.0354 18.2332L13.7392 18.9436L14.5138 18.176C15.0623 18.6282 15.7055 18.9631 16.4014 19.15L16.2261 20.225L17.2131 20.386L17.3884 19.3107C17.738 19.3319 18.0951 19.3164 18.4553 19.2611C18.8156 19.2057 19.1609 19.1131 19.488 18.9879L19.9782 19.961L20.8713 19.511L20.3812 18.5382C20.9888 18.151 21.5017 17.6384 21.8891 17.0423L22.8585 17.5419L23.3166 16.653L22.3478 16.1538C22.6052 15.503 22.7286 14.7912 22.6892 14.0574L23.7668 13.8918L23.7668 13.8918L23.6149 12.9034L22.5373 13.069C22.3545 12.3574 22.023 11.7154 21.5821 11.172L22.3562 10.4049L21.6523 9.6946L20.8777 10.4622C20.3292 10.01 19.686 9.67512 18.9901 9.48825L19.1655 8.41313L18.1785 8.25219L18.0032 9.3275C17.6535 9.30631 17.2964 9.32175 16.9361 9.37713C16.5759 9.4325 16.2306 9.52502 15.9035 9.6502L15.4133 8.67721L14.5203 9.12713L15.0104 10.0999C14.4027 10.4871 13.8898 10.9997 13.5024 11.5958ZM13.7421 14.9268C14.0778 17.1103 16.1199 18.6083 18.3034 18.2727C20.4869 17.937 21.9849 15.8949 21.6493 13.7114C21.3137 11.5279 19.2715 10.0299 17.088 10.3655C14.9045 10.7011 13.4065 12.7433 13.7421 14.9268ZM16.7073 14.471C16.7912 15.0169 17.3018 15.3914 17.8476 15.3075C18.3935 15.2236 18.768 14.713 18.6841 14.1672C18.6002 13.6213 18.0897 13.2468 17.5438 13.3307C16.9979 13.4146 16.6234 13.9251 16.7073 14.471ZM15.7189 14.6229C15.8868 15.7147 16.9078 16.4637 17.9996 16.2959C19.0913 16.1281 19.8403 15.107 19.6725 14.0152C19.5047 12.9235 18.4836 12.1745 17.3919 12.3423C16.3001 12.5101 15.5511 13.5312 15.7189 14.6229Z" fill="#414141"/>
</svg>
