<svg width="32" height="32" viewBox="0 0 32 32" fill="none" xmlns="http://www.w3.org/2000/svg">
<path d="M16.9996 13.5H10.9996V14.5H16.9996V13.5Z" fill="#414141"/>
<path fill-rule="evenodd" clip-rule="evenodd" d="M14.0996 20.1001C12.9129 20.1001 11.7529 19.7482 10.7662 19.0889C9.7795 18.4296 9.01046 17.4926 8.55633 16.3962C8.10221 15.2998 7.98339 14.0934 8.2149 12.9296C8.44641 11.7657 9.01786 10.6966 9.85697 9.85746C10.6961 9.01834 11.7652 8.4469 12.9291 8.21539C14.093 7.98388 15.2994 8.1027 16.3957 8.55682C17.4921 9.01095 18.4291 9.77998 19.0884 10.7667C19.7477 11.7534 20.0996 12.9134 20.0996 14.1001C20.0953 15.5598 19.5607 16.9634 18.6032 18.0536L23.1679 22.6183L22.4609 23.3253L17.8831 18.7475C16.819 19.6146 15.4845 20.096 14.0996 20.1001ZM14.0996 9.1001C13.4412 9.09355 12.7881 9.21841 12.1785 9.46736C11.5689 9.71632 11.0151 10.0844 10.5495 10.55C10.0839 11.0156 9.71583 11.5694 9.46687 12.179C9.21792 12.7885 9.09306 13.4417 9.09961 14.1001C9.09306 14.7585 9.21792 15.4117 9.46687 16.0212C9.71583 16.6308 10.0839 17.1846 10.5495 17.6502C11.0151 18.1158 11.5689 18.4839 12.1785 18.7328C12.7881 18.9818 13.4412 19.1067 14.0996 19.1001C14.758 19.1067 15.4112 18.9818 16.0208 18.7328C16.6303 18.4839 17.1841 18.1158 17.6497 17.6502C18.1153 17.1846 18.4834 16.6308 18.7324 16.0212C18.9813 15.4117 19.1062 14.7585 19.0996 14.1001C19.1062 13.4417 18.9813 12.7885 18.7324 12.179C18.4834 11.5694 18.1153 11.0156 17.6497 10.55C17.1841 10.0844 16.6303 9.71632 16.0208 9.46736C15.4112 9.21841 14.758 9.09355 14.0996 9.1001Z" fill="#414141"/>
</svg>
