<svg width="32" height="32" viewBox="0 0 32 32" fill="none" xmlns="http://www.w3.org/2000/svg">
<path fill-rule="evenodd" clip-rule="evenodd" d="M16 12C13.7909 12 12 13.7909 12 16C12 18.2091 13.7909 20 16 20C18.2091 20 20 18.2091 20 16C20 13.7909 18.2091 12 16 12ZM13 16C13 14.3431 14.3431 13 16 13C17.6569 13 19 14.3431 19 16C19 17.6569 17.6569 19 16 19C14.3431 19 13 17.6569 13 16Z" fill="#414141"/>
<path fill-rule="evenodd" clip-rule="evenodd" d="M12.3102 10.0475L12.0402 9.77747C11.7277 9.46505 11.2212 9.46505 10.9088 9.77747L9.77742 10.9088C9.465 11.2213 9.465 11.7278 9.77742 12.0402L10.0475 12.3103C10.3056 12.5684 10.3513 12.9665 10.1969 13.2974C10.1193 13.4638 10.0486 13.6341 9.98527 13.8079C9.86025 14.1508 9.54649 14.4 9.18146 14.4H8.8C8.35817 14.4 8 14.7582 8 15.2V16.8C8 17.2418 8.35817 17.6 8.8 17.6H9.18146C9.54649 17.6 9.86025 17.8491 9.98527 18.1921C10.0486 18.3659 10.1193 18.5362 10.1969 18.7026C10.3513 19.0335 10.3056 19.4316 10.0475 19.6897L9.77745 19.9598C9.46504 20.2722 9.46504 20.7787 9.77746 21.0911L10.9088 22.2225C11.2212 22.5349 11.7278 22.5349 12.0402 22.2225L12.3102 21.9525C12.5684 21.6943 12.9665 21.6487 13.2973 21.803C13.4638 21.8807 13.6341 21.9514 13.8079 22.0147C14.1508 22.1398 14.4 22.4535 14.4 22.8185V23.2C14.4 23.6418 14.7582 24 15.2 24H16.8C17.2418 24 17.6 23.6418 17.6 23.2V22.8185C17.6 22.4535 17.8491 22.1398 18.1921 22.0147C18.3659 21.9514 18.5362 21.8807 18.7026 21.8031C19.0335 21.6487 19.4316 21.6944 19.6897 21.9525L19.9598 22.2225C20.2722 22.535 20.7787 22.535 21.0911 22.2225L22.2225 21.0912C22.5349 20.7788 22.5349 20.2722 22.2225 19.9598L21.9525 19.6898C21.6943 19.4316 21.6487 19.0335 21.803 18.7027C21.8807 18.5362 21.9514 18.3659 22.0147 18.1921C22.1398 17.8491 22.4535 17.6 22.8185 17.6H23.2C23.6418 17.6 24 17.2418 24 16.8V15.2C24 14.7582 23.6418 14.4 23.2 14.4H22.8185C22.4535 14.4 22.1398 14.1509 22.0147 13.8079C21.9514 13.6341 21.8807 13.4638 21.803 13.2973C21.6487 12.9665 21.6943 12.5684 21.9525 12.3102L22.2225 12.0402C22.535 11.7277 22.535 11.2212 22.2225 10.9088L21.0912 9.77742C20.7787 9.465 20.2722 9.465 19.9598 9.77742L19.6897 10.0475C19.4316 10.3056 19.0335 10.3513 18.7026 10.1969C18.5362 10.1193 18.3659 10.0486 18.1921 9.98527C17.8492 9.86025 17.6 9.54649 17.6 9.18146V8.8C17.6 8.35817 17.2418 8 16.8 8H15.2C14.7582 8 14.4 8.35817 14.4 8.8V9.18146C14.4 9.54649 14.1509 9.86025 13.8079 9.98527C13.6341 10.0486 13.4638 10.1193 13.2973 10.197C12.9665 10.3513 12.5684 10.3057 12.3102 10.0475ZM15.4 9.18146V9H16.6V9.18146C16.6 10.0217 17.1661 10.6756 17.8496 10.9248C17.996 10.9782 18.1396 11.0377 18.2798 11.1032C18.9396 11.411 19.8026 11.3488 20.3968 10.7546L20.5255 10.6259L21.374 11.4745L21.2454 11.6031C20.6512 12.1973 20.589 13.0604 20.8968 13.7201C20.9622 13.8604 21.0218 14.0039 21.0752 14.1504C21.3244 14.8339 21.9783 15.4 22.8185 15.4H23V16.6H22.8185C21.9783 16.6 21.3244 17.1661 21.0752 17.8496C21.0218 17.9961 20.9622 18.1396 20.8968 18.2799C20.589 18.9396 20.6512 19.8027 21.2454 20.3969L21.374 20.5255L20.5254 21.374L20.3968 21.2454C19.8027 20.6512 18.9396 20.589 18.2798 20.8968C18.1396 20.9623 17.996 21.0218 17.8496 21.0752C17.1661 21.3244 16.6 21.9783 16.6 22.8185V23H15.4V22.8185C15.4 21.9783 14.8339 21.3244 14.1504 21.0752C14.0039 21.0218 13.8604 20.9622 13.7201 20.8968C13.0604 20.589 12.1973 20.6512 11.6031 21.2454L11.4745 21.374L10.626 20.5254L10.7546 20.3968C11.3488 19.8026 11.411 18.9396 11.1032 18.2798C11.0377 18.1396 10.9782 17.996 10.9248 17.8496C10.6756 17.1661 10.0217 16.6 9.18146 16.6H9V15.4H9.18146C10.0217 15.4 10.6756 14.8339 10.9248 14.1504C10.9782 14.004 11.0377 13.8604 11.1032 13.7202C11.411 13.0604 11.3488 12.1974 10.7546 11.6032L10.6259 11.4745L11.4745 10.626L11.6031 10.7546C12.1973 11.3488 13.0604 11.411 13.7201 11.1032C13.8604 11.0378 14.0039 10.9782 14.1504 10.9248C14.8339 10.6756 15.4 10.0217 15.4 9.18146Z" fill="#414141"/>
</svg>
