<svg width="32" height="32" viewBox="0 0 32 32" fill="none" xmlns="http://www.w3.org/2000/svg">
<path d="M8.78867 4.37564L22.2113 4.37564L28.9226 16L22.2113 27.6244H8.78867L2.07735 16L8.78867 4.37564Z" stroke="#414141"/>
<path fill-rule="evenodd" clip-rule="evenodd" d="M8 11H12V15H8V11ZM9 12H11V14H9V12Z" fill="#414141"/>
<path fill-rule="evenodd" clip-rule="evenodd" d="M20 13C20 11.8954 20.8954 11 22 11C23.1046 11 24 11.8954 24 13C24 14.1046 23.1046 15 22 15C20.8954 15 20 14.1046 20 13ZM22 14C21.4477 14 21 13.5523 21 13C21 12.4477 21.4477 12 22 12C22.5523 12 23 12.4477 23 13C23 13.5523 22.5523 14 22 14Z" fill="#414141"/>
<path d="M16.5292 11L18.6679 12.9991L18.67 13.0019L16.5312 15L15.8186 14.333L16.7398 13.4717H13.67V12.5283H16.7368L15.8166 11.667L16.5292 11Z" fill="#414141"/>
<path fill-rule="evenodd" clip-rule="evenodd" d="M8 17H12V21H8V17ZM9 18H11V20H9V18Z" fill="#414141"/>
<path fill-rule="evenodd" clip-rule="evenodd" d="M22 17C20.8954 17 20 17.8954 20 19C20 20.1046 20.8954 21 22 21C23.1046 21 24 20.1046 24 19C24 17.8954 23.1046 17 22 17ZM21 19C21 19.5523 21.4477 20 22 20C22.5523 20 23 19.5523 23 19C23 18.4477 22.5523 18 22 18C21.4477 18 21 18.4477 21 19Z" fill="#414141"/>
<path d="M18.6679 18.9991L16.5292 17L15.8166 17.667L16.7368 18.5283H13.67V19.4717H16.7398L15.8186 20.333L16.5312 21L18.67 19.0019L18.6679 18.9991Z" fill="#414141"/>
</svg>
