<svg width="32" height="32" viewBox="0 0 32 32" fill="none" xmlns="http://www.w3.org/2000/svg">
<path d="M23.0378 8.85048C22.4666 8.30462 21.7069 8 20.9168 8C20.1267 8 19.367 8.30462 18.7958 8.85048L16.5358 11.1105C15.9771 10.8548 15.3547 10.7722 14.7487 10.8735C14.1427 10.9747 13.581 11.2551 13.1358 11.6785L8.89577 15.9215C8.6135 16.1993 8.38903 16.5302 8.23529 16.8951C8.08155 17.2601 8.00159 17.6519 8.00002 18.0479C7.99846 18.4439 8.07532 18.8363 8.22616 19.2025C8.37701 19.5687 8.59887 19.9013 8.87893 20.1813C9.15899 20.4613 9.49172 20.6831 9.85792 20.8339C10.2241 20.9846 10.6166 21.0614 11.0126 21.0597C11.4086 21.0581 11.8004 20.978 12.1653 20.8242C12.5302 20.6704 12.8611 20.4458 13.1388 20.1635L15.3888 17.9135C15.9457 18.1858 16.5741 18.2765 17.1853 18.1728C17.7965 18.0691 18.3598 17.7763 18.7958 17.3355L23.0378 13.0925C23.6002 12.5299 23.9161 11.767 23.9161 10.9715C23.9161 10.176 23.6002 9.41307 23.0378 8.85048ZM16.6738 15.2145L15.2598 16.6285C15.074 16.4428 14.9266 16.2222 14.826 15.9795C14.7255 15.7368 14.6737 15.4767 14.6737 15.214C14.6737 14.9513 14.7255 14.6911 14.826 14.4484C14.9266 14.2057 15.074 13.9852 15.2598 13.7995L16.6748 12.3865C17.0496 12.7617 17.26 13.2704 17.2598 13.8007C17.2597 14.331 17.0488 14.8396 16.6738 15.2145ZM12.4318 19.4565C12.0508 19.8204 11.5441 20.0234 11.0173 20.0234C10.4904 20.0234 9.98379 19.8204 9.60277 19.4565C9.22783 19.0814 9.0172 18.5728 9.0172 18.0425C9.0172 17.5122 9.22783 17.0035 9.60277 16.6285L13.8458 12.3855C14.0908 12.1344 14.3992 11.9543 14.7383 11.8643C15.0774 11.7743 15.4345 11.7778 15.7718 11.8745L14.5528 13.0925C14.2741 13.3711 14.0531 13.7018 13.9023 14.0658C13.7515 14.4298 13.6739 14.82 13.6739 15.214C13.6739 15.608 13.7515 15.9981 13.9023 16.3622C14.0531 16.7262 14.2741 17.0569 14.5528 17.3355L12.4318 19.4565ZM22.3318 12.3855L18.0898 16.6285C17.8397 16.8679 17.5326 17.0395 17.1977 17.127C16.8627 17.2145 16.511 17.215 16.1758 17.1285L17.3818 15.9225C17.9442 15.3599 18.2601 14.597 18.2601 13.8015C18.2601 13.006 17.9442 12.2431 17.3818 11.6805L19.5028 9.55848C19.8836 9.19465 20.3901 8.99162 20.9168 8.99162C21.4435 8.99162 21.9499 9.19465 22.3308 9.55848C22.7057 9.93354 22.9163 10.4422 22.9163 10.9725C22.9163 11.5028 22.7057 12.0114 22.3308 12.3865L22.3318 12.3855Z" fill="#E8E8E8"/>
<path d="M20.5 17V20.5M20.5 24V20.5M20.5 20.5H24M20.5 20.5H17" stroke="#E8E8E8"/>
</svg>
