<svg width="32" height="32" viewBox="0 0 32 32" fill="none" xmlns="http://www.w3.org/2000/svg">
<path fill-rule="evenodd" clip-rule="evenodd" d="M10.8307 19.5365C11.8781 20.2287 13.1096 20.5981 14.3693 20.5981C15.8366 20.5938 17.2506 20.0904 18.3791 19.1833L23.2495 24L24 23.2578L19.1445 18.4558C20.1645 17.3104 20.7339 15.8343 20.7386 14.2991C20.7386 13.0532 20.365 11.8354 19.6651 10.7995C18.9653 9.76362 17.9705 8.95625 16.8067 8.47949C15.6429 8.00273 14.3622 7.87799 13.1267 8.12104C11.8912 8.36409 10.7563 8.96402 9.86552 9.84496C8.97476 10.7259 8.36815 11.8483 8.12239 13.0702C7.87663 14.2921 8.00276 15.5586 8.48483 16.7096C8.96691 17.8606 9.78328 18.8444 10.8307 19.5365ZM12.3299 9.43541C12.977 9.17405 13.6703 9.04297 14.3693 9.04985C15.0682 9.04297 15.7616 9.17405 16.4087 9.43541C17.0558 9.69678 17.6436 10.0832 18.1379 10.572C18.6322 11.0608 19.0229 11.6422 19.2871 12.2822C19.5514 12.9221 19.684 13.6078 19.677 14.2991C19.684 14.9903 19.5514 15.676 19.2871 16.316C19.0229 16.9559 18.6322 17.5373 18.1379 18.0261C17.6436 18.515 17.0558 18.9014 16.4087 19.1627C15.7616 19.4241 15.0682 19.5552 14.3693 19.5483C13.6703 19.5552 12.977 19.4241 12.3299 19.1627C11.6828 18.9014 11.0949 18.515 10.6007 18.0261C10.1064 17.5373 9.71569 16.9559 9.45141 16.316C9.18714 15.676 9.0546 14.9903 9.06155 14.2991C9.0546 13.6078 9.18714 12.9221 9.45141 12.2822C9.71569 11.6422 10.1064 11.0608 10.6007 10.572C11.0949 10.0832 11.6828 9.69678 12.3299 9.43541Z" fill="#414141"/>
</svg>
