<svg width="60" height="60" viewBox="0 0 60 60" fill="none" xmlns="http://www.w3.org/2000/svg">
<path fill-rule="evenodd" clip-rule="evenodd" d="M33.5052 23.4375H30.4488V21.5625H36.707V27.8206H34.832V24.7626C32.7681 26.8192 31.1755 28.3405 29.557 29.3453C27.7424 30.4719 25.9233 30.9375 23.4375 30.9375V29.0625C25.6392 29.0625 27.1014 28.6629 28.568 27.7523C29.983 26.8738 31.424 25.5101 33.5052 23.4375Z" fill="#FBFCFC"/>
<path fill-rule="evenodd" clip-rule="evenodd" d="M33.5052 36.5625H30.4488V38.4375H36.707V32.1794H34.832V35.2374C32.7681 33.1808 31.1755 31.6595 29.557 30.6547C27.7424 29.5281 25.9233 29.0625 23.4375 29.0625V30.9375C25.6392 30.9375 27.1014 31.3371 28.568 32.2477C29.983 33.1262 31.424 34.4899 33.5052 36.5625Z" fill="#FBFCFC"/>
</svg>
