<svg width="32" height="32" viewBox="0 0 32 32" fill="none" xmlns="http://www.w3.org/2000/svg">
<path d="M21.6213 17.2426L23.7426 15.1213M23.7426 15.1213L21.6213 13M23.7426 15.1213L15 15.1213" stroke="#414141"/>
<path fill-rule="evenodd" clip-rule="evenodd" d="M10 15C10 17.7614 12.2386 20 15 20C16.1258 20 17.1647 19.6279 18.0005 19H19.4722C18.3736 20.2275 16.777 21 15 21C11.6863 21 9 18.3137 9 15C9 11.6863 11.6863 9 15 9C16.777 9 18.3736 9.7725 19.4722 11H18.0005C17.1647 10.3721 16.1258 10 15 10C12.2386 10 10 12.2386 10 15Z" fill="#414141"/>
</svg>
