<svg width="11" height="8" viewBox="0 0 11 8" fill="none" xmlns="http://www.w3.org/2000/svg">
<path d="M3.17773 0.185638C4.09896 0.185638 4.77116 0.384206 5.19434 0.781342C5.61751 1.17522 5.8291 1.71884 5.8291 2.4122C5.8291 2.7247 5.7819 3.02418 5.6875 3.31064C5.5931 3.59384 5.43848 3.84612 5.22363 4.06747C5.01204 4.28883 4.72884 4.46461 4.37402 4.59482C4.01921 4.72177 3.58138 4.78525 3.06055 4.78525H2.41113V7.32431H0.897461V0.185638H3.17773ZM3.09961 1.42587H2.41113V3.54501H2.90918C3.19238 3.54501 3.43815 3.50758 3.64648 3.43271C3.85482 3.35784 4.01595 3.24065 4.12988 3.08115C4.24382 2.92164 4.30078 2.71656 4.30078 2.46591C4.30078 2.11435 4.20312 1.85393 4.00781 1.68466C3.8125 1.51214 3.50977 1.42587 3.09961 1.42587Z" fill="white"/>
<path d="M10.4092 7.32431H8.90039V3.19345C8.90039 3.07952 8.90202 2.93954 8.90527 2.77353C8.90853 2.60426 8.91341 2.43173 8.91992 2.25595C8.92643 2.07691 8.93294 1.91578 8.93945 1.77255C8.90365 1.81487 8.8304 1.88811 8.71973 1.99228C8.6123 2.09319 8.51139 2.18434 8.41699 2.26572L7.59668 2.9249L6.86914 2.01669L9.16895 0.185638H10.4092V7.32431Z" fill="white"/>
</svg>
