<svg width="11" height="8" viewBox="0 0 11 8" fill="none" xmlns="http://www.w3.org/2000/svg">
<path d="M3.17871 0.185547C4.09993 0.185547 4.77214 0.384115 5.19531 0.78125C5.61849 1.17513 5.83008 1.71875 5.83008 2.41211C5.83008 2.72461 5.78288 3.02409 5.68848 3.31055C5.59408 3.59375 5.43945 3.84603 5.22461 4.06738C5.01302 4.28874 4.72982 4.46452 4.375 4.59473C4.02018 4.72168 3.58236 4.78516 3.06152 4.78516H2.41211V7.32422H0.898438V0.185547H3.17871ZM3.10059 1.42578H2.41211V3.54492H2.91016C3.19336 3.54492 3.43913 3.50749 3.64746 3.43262C3.85579 3.35775 4.01693 3.24056 4.13086 3.08105C4.24479 2.92155 4.30176 2.71647 4.30176 2.46582C4.30176 2.11426 4.2041 1.85384 4.00879 1.68457C3.81348 1.51204 3.51074 1.42578 3.10059 1.42578Z" fill="white"/>
<path d="M10.4102 7.32422H8.90137V3.19336C8.90137 3.07943 8.90299 2.93945 8.90625 2.77344C8.90951 2.60417 8.91439 2.43164 8.9209 2.25586C8.92741 2.07682 8.93392 1.91569 8.94043 1.77246C8.90462 1.81478 8.83138 1.88802 8.7207 1.99219C8.61328 2.0931 8.51237 2.18424 8.41797 2.26562L7.59766 2.9248L6.87012 2.0166L9.16992 0.185547H10.4102V7.32422Z" fill="white"/>
</svg>
