<svg width="12" height="8" viewBox="0 0 12 8" fill="none" xmlns="http://www.w3.org/2000/svg">
<path d="M3.17773 0.185638C4.09896 0.185638 4.77116 0.384206 5.19434 0.781342C5.61751 1.17522 5.8291 1.71884 5.8291 2.4122C5.8291 2.7247 5.7819 3.02418 5.6875 3.31064C5.5931 3.59384 5.43848 3.84612 5.22363 4.06747C5.01204 4.28883 4.72884 4.46461 4.37402 4.59482C4.01921 4.72177 3.58138 4.78525 3.06055 4.78525H2.41113V7.32431H0.897461V0.185638H3.17773ZM3.09961 1.42587H2.41113V3.54501H2.90918C3.19238 3.54501 3.43815 3.50758 3.64648 3.43271C3.85482 3.35784 4.01595 3.24065 4.12988 3.08115C4.24382 2.92164 4.30078 2.71656 4.30078 2.46591C4.30078 2.11435 4.20312 1.85393 4.00781 1.68466C3.8125 1.51214 3.50977 1.42587 3.09961 1.42587Z" fill="white"/>
<path d="M11.6689 7.32431H6.67871V6.27451L8.4707 4.46298C8.83203 4.09189 9.12174 3.78264 9.33984 3.53525C9.5612 3.2846 9.7207 3.05673 9.81836 2.85165C9.91927 2.64658 9.96973 2.42685 9.96973 2.19247C9.96973 1.90927 9.88997 1.69768 9.73047 1.55771C9.57422 1.41448 9.36426 1.34286 9.10059 1.34286C8.82389 1.34286 8.55534 1.40634 8.29492 1.53329C8.03451 1.66025 7.7627 1.84091 7.47949 2.07529L6.65918 1.10361C6.86426 0.927826 7.08073 0.76181 7.30859 0.60556C7.53971 0.44931 7.80664 0.323985 8.10938 0.229584C8.41536 0.131927 8.78158 0.0830994 9.20801 0.0830994C9.67676 0.0830994 10.0788 0.167735 10.4141 0.337006C10.7526 0.506276 11.013 0.737396 11.1953 1.03036C11.3776 1.32008 11.4688 1.64885 11.4688 2.01669C11.4688 2.41057 11.3906 2.77027 11.2344 3.09579C11.0781 3.42132 10.8503 3.74358 10.5508 4.06259C10.2546 4.3816 9.89648 4.73479 9.47656 5.12216L8.55859 5.98642V6.05478H11.6689V7.32431Z" fill="white"/>
</svg>
