<svg width="12" height="8" viewBox="0 0 12 8" fill="none" xmlns="http://www.w3.org/2000/svg">
<path d="M3.17871 0.185547C4.09993 0.185547 4.77214 0.384115 5.19531 0.78125C5.61849 1.17513 5.83008 1.71875 5.83008 2.41211C5.83008 2.72461 5.78288 3.02409 5.68848 3.31055C5.59408 3.59375 5.43945 3.84603 5.22461 4.06738C5.01302 4.28874 4.72982 4.46452 4.375 4.59473C4.02018 4.72168 3.58236 4.78516 3.06152 4.78516H2.41211V7.32422H0.898438V0.185547H3.17871ZM3.10059 1.42578H2.41211V3.54492H2.91016C3.19336 3.54492 3.43913 3.50749 3.64746 3.43262C3.85579 3.35775 4.01693 3.24056 4.13086 3.08105C4.24479 2.92155 4.30176 2.71647 4.30176 2.46582C4.30176 2.11426 4.2041 1.85384 4.00879 1.68457C3.81348 1.51204 3.51074 1.42578 3.10059 1.42578Z" fill="white"/>
<path d="M11.6699 7.32422H6.67969V6.27441L8.47168 4.46289C8.83301 4.0918 9.12272 3.78255 9.34082 3.53516C9.56217 3.28451 9.72168 3.05664 9.81934 2.85156C9.92025 2.64648 9.9707 2.42676 9.9707 2.19238C9.9707 1.90918 9.89095 1.69759 9.73145 1.55762C9.5752 1.41439 9.36523 1.34277 9.10156 1.34277C8.82487 1.34277 8.55632 1.40625 8.2959 1.5332C8.03548 1.66016 7.76367 1.84082 7.48047 2.0752L6.66016 1.10352C6.86523 0.927734 7.08171 0.761719 7.30957 0.605469C7.54069 0.449219 7.80762 0.323893 8.11035 0.229492C8.41634 0.131836 8.78255 0.0830078 9.20898 0.0830078C9.67773 0.0830078 10.0798 0.167643 10.415 0.336914C10.7536 0.506185 11.014 0.737305 11.1963 1.03027C11.3786 1.31999 11.4697 1.64876 11.4697 2.0166C11.4697 2.41048 11.3916 2.77018 11.2354 3.0957C11.0791 3.42122 10.8512 3.74349 10.5518 4.0625C10.2555 4.38151 9.89746 4.7347 9.47754 5.12207L8.55957 5.98633V6.05469H11.6699V7.32422Z" fill="white"/>
</svg>
