<svg width="278" height="103" viewBox="0 0 278 103" fill="none" xmlns="http://www.w3.org/2000/svg">
<path d="M493.006 6.53033C493.299 6.23744 493.299 5.76256 493.006 5.46967L488.233 0.696701C487.94 0.403808 487.465 0.403808 487.172 0.696701C486.879 0.989594 486.879 1.46447 487.172 1.75736L491.415 6L487.172 10.2426C486.879 10.5355 486.879 11.0104 487.172 11.3033C487.465 11.5962 487.94 11.5962 488.233 11.3033L493.006 6.53033ZM468.711 97L467.961 97L468.711 97ZM6.1309 102.75L463.711 102.75L463.711 101.25L6.13091 101.25L6.1309 102.75ZM1.88091 97L1.88077 45.8961L0.380766 45.8961L0.380915 97L1.88091 97ZM469.461 97L469.461 11L467.961 11L467.961 97L469.461 97ZM473.711 6.75L492.476 6.75L492.476 5.25L473.711 5.25L473.711 6.75ZM469.461 11C469.461 8.6528 471.364 6.75 473.711 6.75L473.711 5.25C470.536 5.25 467.961 7.82437 467.961 11L469.461 11ZM463.711 102.75C466.887 102.75 469.461 100.176 469.461 97L467.961 97C467.961 99.3472 466.059 101.25 463.711 101.25L463.711 102.75ZM6.13091 101.25C3.7837 101.25 1.88092 99.3472 1.88091 97L0.380915 97C0.380924 100.176 2.95528 102.75 6.1309 102.75L6.13091 101.25Z" fill="#414141"/>
</svg>
