<svg width="28" height="85" viewBox="0 0 28 85" fill="none" xmlns="http://www.w3.org/2000/svg">
<path d="M27.5303 79.5303C27.8232 79.2374 27.8232 78.7626 27.5303 78.4697L22.7574 73.6967C22.4645 73.4038 21.9896 73.4038 21.6967 73.6967C21.4038 73.9896 21.4038 74.4645 21.6967 74.7574L25.9393 79L21.6967 83.2426C21.4038 83.5355 21.4038 84.0104 21.6967 84.3033C21.9896 84.5962 22.4645 84.5962 22.7574 84.3033L27.5303 79.5303ZM0.75 0.5L0.75 74H2.25L2.25 0.5L0.75 0.5ZM6.5 79.75H27V78.25H6.5V79.75ZM0.75 74C0.75 77.1756 3.32436 79.75 6.5 79.75V78.25C4.15279 78.25 2.25 76.3472 2.25 74H0.75Z" fill="#414141"/>
</svg>
