<svg width="28" height="65" viewBox="0 0 28 65" fill="none" xmlns="http://www.w3.org/2000/svg">
<path d="M27.5303 59.5303C27.8232 59.2374 27.8232 58.7626 27.5303 58.4697L22.7574 53.6967C22.4645 53.4038 21.9896 53.4038 21.6967 53.6967C21.4038 53.9896 21.4038 54.4645 21.6967 54.7574L25.9393 59L21.6967 63.2426C21.4038 63.5355 21.4038 64.0104 21.6967 64.3033C21.9896 64.5962 22.4645 64.5962 22.7574 64.3033L27.5303 59.5303ZM0.75 0.5L0.75 54H2.25L2.25 0.5L0.75 0.5ZM6.5 59.75H27V58.25H6.5V59.75ZM0.75 54C0.75 57.1756 3.32436 59.75 6.5 59.75V58.25C4.15279 58.25 2.25 56.3472 2.25 54H0.75Z" fill="#414141"/>
</svg>
