<svg width="522" height="118" viewBox="0 0 522 118" fill="none" xmlns="http://www.w3.org/2000/svg">
<path d="M521.026 6.53033C521.319 6.23744 521.319 5.76257 521.026 5.46967L516.253 0.696701C515.96 0.403808 515.485 0.403808 515.193 0.696701C514.9 0.989594 514.9 1.46447 515.193 1.75736L519.435 6L515.193 10.2426C514.9 10.5355 514.9 11.0104 515.193 11.3033C515.485 11.5962 515.96 11.5962 516.253 11.3033L521.026 6.53033ZM495.79 11L496.54 11L495.79 11ZM495.79 112L495.04 112L495.79 112ZM6.49598 117.75L490.79 117.75L490.79 116.25L6.49598 116.25L6.49598 117.75ZM2.24599 112L2.24599 55.5744L0.745992 55.5744L0.745988 112L2.24599 112ZM496.54 112L496.54 11L495.04 11L495.04 112L496.54 112ZM500.79 6.75L520.496 6.75L520.496 5.25L500.79 5.25L500.79 6.75ZM496.54 11C496.54 8.6528 498.443 6.75 500.79 6.75L500.79 5.25C497.614 5.25 495.04 7.82437 495.04 11L496.54 11ZM490.79 117.75C493.966 117.75 496.54 115.176 496.54 112L495.04 112C495.04 114.347 493.137 116.25 490.79 116.25L490.79 117.75ZM6.49598 116.25C4.14877 116.25 2.24599 114.347 2.24599 112L0.745988 112C0.745987 115.176 3.32034 117.75 6.49598 117.75L6.49598 116.25Z" fill="#414141"/>
</svg>
